<?xml version="1.0" encoding="UTF-8" standalone="yes"?>
<!DOCTYPE svg PUBLIC "-//W3C//DTD SVG 1.0//EN" "http://www.w3.org/TR/2001/REC-SVG-20010904/DTD/svg10.dtd">
<svg height="300" width="1420" xmlns="http://www.w3.org/2000/svg" xmlns:svg="http://www.w3.org/2000/svg" xmlns:xlink="http://www.w3.org/1999/xlink">
	<text fill="rgb(27,158,119)" font-family="Arial" font-size="14" font-style="italic" stroke="rgb(27,158,119)" text-anchor="middle" x="161.25" y="65">KF11</text>
	<text fill="blue" font-family="Arial" font-size="14" font-style="italic" stroke="blue" text-anchor="middle" x="-16.2500000000001" y="265">S4185</text>
	<path d="M47.2186379166666 267 L 56.4554612499999 267  Q 135.58162165 221 , 144.37341725 175 T 232.29137325 83  L 221.25261225  83 Q 142.9373238 129 , 134.235625083333 175 T 47.2186379166666 267  Z" style="fill: rgb(166,206,227); fill-opacity: 0.92; stroke: rgb(166,206,227); stroke-opacity: 0.92; stroke-width: 1" />
	<path d="M134.584553333333 267 L 142.373490833333 267  Q 184.701051102083 221 , 189.404113354167 175 T 236.434735875 83  L 227.011924875  83 Q 185.41960768125 129 , 180.798239104167 175 T 134.584553333333 267  Z" style="fill: rgb(166,206,227); fill-opacity: 0.92; stroke: rgb(166,206,227); stroke-opacity: 0.92; stroke-width: 1" />
	<path d="M798.081555 267 L 799.9387 267  Q 546.36191614375 221 , 518.1867179375 175 T 236.434735875 83  L 234.249801375  83 Q 487.97409050625 129 , 516.1656781875 175 T 798.081555 267  Z" style="fill: rgb(166,206,227); fill-opacity: 0.92; stroke: rgb(166,206,227); stroke-opacity: 0.92; stroke-width: 1" />
	<path d="M69.9978075 267 L 79.1610495833333 267  Q 159.366235133333 221 , 168.277922416667 175 T 257.39479525 83  L 246.443969875  83 Q 167.04319680625 129 , 158.2208886875 175 T 69.9978075 267  Z" style="fill: rgb(31,120,180); fill-opacity: 0.92; stroke: rgb(31,120,180); stroke-opacity: 0.92; stroke-width: 1" />
	<path d="M680.243887083333 267 L 690.493920416667 267  Q 497.492832360417 221 , 476.048267020833 175 T 261.602613625 83  L 250.102426  83 Q 443.6660834875 129 , 465.173156541667 175 T 680.243887083333 267  Z" style="fill: rgb(31,120,180); fill-opacity: 0.92; stroke: rgb(31,120,180); stroke-opacity: 0.92; stroke-width: 1" />
	<path d="M89.1704791666666 267 L 92.6484195833333 267  Q 168.685707439583 221 , 177.134294979167 175 T 261.620170375 83  L 257.406064375  83 Q 181.70005103125 129 , 173.288271770833 175 T 89.1704791666666 267  Z" style="fill: rgb(31,120,180); fill-opacity: 0.92; stroke: rgb(31,120,180); stroke-opacity: 0.92; stroke-width: 1" />
	<path d="M92.6526133333333 267 L 101.8724075 267  Q 183.2142464 221 , 192.2522285 175 T 282.6320495 83  L 271.62518225  83 Q 191.0875262375 129 , 182.138897791667 175 T 92.6526133333333 267  Z" style="fill: rgb(178,223,138); fill-opacity: 0.92; stroke: rgb(178,223,138); stroke-opacity: 0.92; stroke-width: 1" />
	<path d="M111.884353333333 267 L 115.369867916667 267  Q 192.518737972917 221 , 201.090834645833 175 T 286.811801375 83  L 282.64632575  83 Q 205.8034381625 129 , 197.265339541667 175 T 111.884353333333 267  Z" style="fill: rgb(178,223,138); fill-opacity: 0.92; stroke: rgb(178,223,138); stroke-opacity: 0.92; stroke-width: 1" />
	<path d="M115.3768575 267 L 124.575454166667 267  Q 207.032453966667 221 , 216.194342833333 175 T 307.8132315 83  L 296.8201545  83 Q 215.17067085 129 , 206.098506 175 T 115.3768575 267  Z" style="fill: rgb(51,160,44); fill-opacity: 0.92; stroke: rgb(51,160,44); stroke-opacity: 0.92; stroke-width: 1" />
	<path d="M134.584553333333 267 L 138.078557083333 267  Q 216.343083377083 221 , 225.039141854167 175 T 311.999726625 83  L 307.82410575  83 Q 229.8663071625 129 , 221.204329541667 175 T 134.584553333333 267  Z" style="fill: rgb(51,160,44); fill-opacity: 0.92; stroke: rgb(51,160,44); stroke-opacity: 0.92; stroke-width: 1" />
	<path d="M340.3667725 267 L 345.539089583333 267  Q 329.748709583333 221 , 327.994222916667 175 T 310.44935625 83  L 305.346022125  83 Q 321.10535979375 129 , 322.8563973125 175 T 340.3667725 267  Z" style="fill: rgb(51,160,44); fill-opacity: 0.92; stroke: rgb(51,160,44); stroke-opacity: 0.92; stroke-width: 1" />
	<path d="M138.080387083333 267 L 147.288921666667 267  Q 230.836026554167 221 , 240.119038208333 175 T 332.94915475 83  L 322.001913625  83 Q 239.23722668125 129 , 230.041150354167 175 T 138.080387083333 267  Z" style="fill: rgb(251,154,153); fill-opacity: 0.92; stroke: rgb(251,154,153); stroke-opacity: 0.92; stroke-width: 1" />
	<path d="M157.293140833333 267 L 160.853558333333 267  Q 240.203203320833 221 , 249.019830541667 175 T 337.18610275 83  L 332.954197  83 Q 253.906721725 129 , 245.123668916667 175 T 157.293140833333 267  Z" style="fill: rgb(251,154,153); fill-opacity: 0.92; stroke: rgb(251,154,153); stroke-opacity: 0.92; stroke-width: 1" />
	<path d="M89.2789574999999 267 L 92.7686658333333 267  Q 202.745153714583 221 , 214.964763479167 175 T 337.160861125 83  L 332.939131  83 Q 223.292052925 129 , 211.10904425 175 T 89.2789574999999 267  Z" style="fill: rgb(251,154,153); fill-opacity: 0.92; stroke: rgb(251,154,153); stroke-opacity: 0.92; stroke-width: 1" />
	<path d="M705.412299583333 267 L 708.617087083333 267  Q 541.435719095833 221 , 522.860011541667 175 T 337.102936 83  L 333.479654125  83 Q 500.84934458125 129 , 519.445976854167 175 T 705.412299583333 267  Z" style="fill: rgb(251,154,153); fill-opacity: 0.92; stroke: rgb(251,154,153); stroke-opacity: 0.92; stroke-width: 1" />
	<path d="M45.0043633333333 267 L 47.9971758333333 267  Q 177.175271095833 221 , 191.528392791667 175 T 335.05960975 83  L 331.448174125  83 Q 202.54845926875 129 , 188.226268729167 175 T 45.0043633333333 267  Z" style="fill: rgb(251,154,153); fill-opacity: 0.92; stroke: rgb(251,154,153); stroke-opacity: 0.92; stroke-width: 1" />
	<path d="M160.869011666667 267 L 169.999085 267  Q 254.68273836875 221 , 264.0920331875 175 T 358.184981375 83  L 347.20457075  83 Q 263.3535691625 129 , 254.036791208333 175 T 160.869011666667 267  Z" style="fill: rgb(227,26,28); fill-opacity: 0.92; stroke: rgb(227,26,28); stroke-opacity: 0.92; stroke-width: 1" />
	<path d="M180.005617083333 267 L 183.453845416667 267  Q 263.966752066667 221 , 272.912630583333 175 T 362.37141575 83  L 358.19278775  83 Q 278.00856095 129 , 269.099202416667 175 T 180.005617083333 267  Z" style="fill: rgb(227,26,28); fill-opacity: 0.92; stroke: rgb(227,26,28); stroke-opacity: 0.92; stroke-width: 1" />
	<path d="M960.408282916667 267 L 964.791539583334 267  Q 693.150512395834 221 , 662.968176041667 175 T 361.1448125 83  L 355.76783  83 Q 627.8560338125 129 , 658.088056458334 175 T 960.408282916667 267  Z" style="fill: rgb(227,26,28); fill-opacity: 0.92; stroke: rgb(227,26,28); stroke-opacity: 0.92; stroke-width: 1" />
	<path d="M183.4591575 267 L 192.70515625 267  Q 278.5198184125 221 , 288.054780875 175 T 383.4044055 83  L 372.377764125  83 Q 287.36439114375 129 , 277.9184608125 175 T 183.4591575 267  Z" style="fill: rgb(253,191,111); fill-opacity: 0.92; stroke: rgb(253,191,111); stroke-opacity: 0.92; stroke-width: 1" />
	<path d="M202.7183475 267 L 206.178597916667 267  Q 287.798182704167 221 , 296.867025458333 175 T 387.555453 83  L 383.420170125  83 Q 302.10434994375 129 , 293.0692588125 175 T 202.7183475 267  Z" style="fill: rgb(253,191,111); fill-opacity: 0.92; stroke: rgb(253,191,111); stroke-opacity: 0.92; stroke-width: 1" />
	<path d="M1030.56354083333 267 L 1032.25601125 267  Q 742.0364128 221 , 709.78979075 175 T 387.32357025 83  L 385.4395305  83 Q 675.74533515 129 , 708.001535666667 175 T 1030.56354083333 267  Z" style="fill: rgb(253,191,111); fill-opacity: 0.92; stroke: rgb(253,191,111); stroke-opacity: 0.92; stroke-width: 1" />
	<path d="M236.353280416667 267 L 237.8036825 267  Q 305.045887625 221 , 312.51724375 175 T 387.230805 83  L 385.54335225  83 Q 318.407819925 129 , 310.948316333333 175 T 236.353280416667 267  Z" style="fill: rgb(253,191,111); fill-opacity: 0.92; stroke: rgb(253,191,111); stroke-opacity: 0.92; stroke-width: 1" />
	<path d="M257.7933475 267 L 259.258008333333 267  Q 316.877738039583 221 , 323.279930229167 175 T 387.301852125 83  L 385.5629745  83 Q 328.06664235 129 , 321.678161 175 T 257.7933475 267  Z" style="fill: rgb(253,191,111); fill-opacity: 0.92; stroke: rgb(253,191,111); stroke-opacity: 0.92; stroke-width: 1" />
	<path d="M206.187010833333 267 L 215.416437916667 267  Q 302.370439479167 221 , 312.031995208333 175 T 408.6475525 83  L 397.565507125  83 Q 311.44518379375 129 , 301.876258979167 175 T 206.187010833333 267  Z" style="fill: rgb(255,127,0); fill-opacity: 0.92; stroke: rgb(255,127,0); stroke-opacity: 0.92; stroke-width: 1" />
	<path d="M225.416895416667 267 L 227.951775833333 267  Q 310.620555627083 221 , 319.805975604167 175 T 411.660175375 83  L 408.64809925  83 Q 326.194057525 129 , 317.032497333333 175 T 225.416895416667 267  Z" style="fill: rgb(255,127,0); fill-opacity: 0.92; stroke: rgb(255,127,0); stroke-opacity: 0.92; stroke-width: 1" />
	<path d="M225.416895416667 267 L 228.028381666667 267  Q 310.097636379167 221 , 319.216442458333 175 T 410.40450325 83  L 407.10480625  83 Q 325.345246375 129 , 316.260850833333 175 T 225.416895416667 267  Z" style="fill: rgb(255,127,0); fill-opacity: 0.92; stroke: rgb(255,127,0); stroke-opacity: 0.92; stroke-width: 1" />
	<path d="M225.416895416667 267 L 228.028686666667 267  Q 310.306225229167 221 , 319.448173958333 175 T 410.86766125 83  L 407.590289875  83 Q 325.61226236875 129 , 316.503592645833 175 T 225.416895416667 267  Z" style="fill: rgb(255,127,0); fill-opacity: 0.92; stroke: rgb(255,127,0); stroke-opacity: 0.92; stroke-width: 1" />
	<path d="M225.416895416667 267 L 228.028254583333 267  Q 310.131382970833 221 , 319.253952791667 175 T 410.479651 83  L 407.1914965  83 Q 325.3929260125 129 , 316.304195958333 175 T 225.416895416667 267  Z" style="fill: rgb(255,127,0); fill-opacity: 0.92; stroke: rgb(255,127,0); stroke-opacity: 0.92; stroke-width: 1" />
	<path d="M225.417200416667 267 L 228.028254583333 267  Q 310.266730933333 221 , 319.404339416667 175 T 410.78042425 83  L 407.4692455  83 Q 325.5458252125 129 , 316.443222958333 175 T 225.417200416667 267  Z" style="fill: rgb(255,127,0); fill-opacity: 0.92; stroke: rgb(255,127,0); stroke-opacity: 0.92; stroke-width: 1" />
	<path d="M225.416895416667 267 L 228.028686666667 267  Q 310.043334160417 221 , 319.156072770833 175 T 410.283458875 83  L 407.018085625  83 Q 325.29755003125 129 , 316.217490520833 175 T 225.416895416667 267  Z" style="fill: rgb(255,127,0); fill-opacity: 0.92; stroke: rgb(255,127,0); stroke-opacity: 0.92; stroke-width: 1" />
	<path d="M442.399604166667 267 L 441.407159583333 267  Q 428.510973033333 221 , 427.078063416667 175 T 412.74896725 83  L 411.67830925  83 Q 425.5028919625 129 , 427.038956708333 175 T 442.399604166667 267  Z" style="fill: rgb(255,127,0); fill-opacity: 0.92; stroke: rgb(255,127,0); stroke-opacity: 0.92; stroke-width: 1" />
	<path d="M231.862460416667 267 L 238.11867125 267  Q 324.5759979875 221 , 334.182367625 175 T 430.246064 83  L 422.750243  83 Q 336.8507408375 129 , 327.306351708333 175 T 231.862460416667 267  Z" style="fill: rgb(202,178,214); fill-opacity: 0.92; stroke: rgb(202,178,214); stroke-opacity: 0.92; stroke-width: 1" />
	<path d="M248.1306425 267 L 254.56355 267  Q 337.08145844375 221 , 346.2501149375 175 T 437.936679875 83  L 430.260370625  83 Q 348.30199296875 129 , 339.1955065625 175 T 248.1306425 267  Z" style="fill: rgb(202,178,214); fill-opacity: 0.92; stroke: rgb(202,178,214); stroke-opacity: 0.92; stroke-width: 1" />
	<path d="M270.835061666667 267 L 277.27267125 267  Q 360.90619185 221 , 370.19880525 175 T 463.12493925 83  L 455.43155925  83 Q 372.3631353375 129 , 363.133310458333 175 T 270.835061666667 267  Z" style="fill: rgb(106,61,154); fill-opacity: 0.92; stroke: rgb(106,61,154); stroke-opacity: 0.92; stroke-width: 1" />
	<path d="M254.565430833333 267 L 260.82588625 267  Q 348.39350468125 221 , 358.1232400625 175 T 455.420593875 83  L 447.938927625  83 Q 360.92085406875 129 , 351.252179229167 175 T 254.565430833333 267  Z" style="fill: rgb(106,61,154); fill-opacity: 0.92; stroke: rgb(106,61,154); stroke-opacity: 0.92; stroke-width: 1" />
	<path d="M293.543801666667 267 L 299.961840416667 267  Q 384.719596222917 221 , 394.137124645833 175 T 488.312408875 83  L 480.61942375  83 Q 396.4353938125 129 , 387.081612708333 175 T 293.543801666667 267  Z" style="fill: rgb(255,255,153); fill-opacity: 0.92; stroke: rgb(255,255,153); stroke-opacity: 0.92; stroke-width: 1" />
	<path d="M277.274399583333 267 L 283.541361666667 267  Q 372.225177404167 221 , 382.078934708333 175 T 480.61650775 83  L 473.12700475  83 Q 384.993332425 129 , 375.200702166667 175 T 277.274399583333 267  Z" style="fill: rgb(255,255,153); fill-opacity: 0.92; stroke: rgb(255,255,153); stroke-opacity: 0.92; stroke-width: 1" />
	<path d="M299.963238333333 267 L 306.24961875 267  Q 396.05933169375 221 , 406.0381886875 175 T 505.826758625 83  L 498.3140795  83 Q 409.056200975 129 , 399.138658916667 175 T 299.963238333333 267  Z" style="fill: rgb(177,89,40); fill-opacity: 0.92; stroke: rgb(177,89,40); stroke-opacity: 0.92; stroke-width: 1" />
	<path d="M316.2501525 267 L 322.712212916667 267  Q 408.563272579167 221 , 418.102279208333 175 T 513.4923455 83  L 505.8273965  83 Q 420.5176367 129 , 411.0387745 175 T 316.2501525 267  Z" style="fill: rgb(177,89,40); fill-opacity: 0.92; stroke: rgb(177,89,40); stroke-opacity: 0.92; stroke-width: 1" />
	<path d="M322.721998333333 267 L 328.956935416667 267  Q 419.856199816667 221 , 429.956118083333 175 T 530.95530075 83  L 523.504039875  83 Q 433.15212118125 129 , 423.113019104167 175 T 322.721998333333 267  Z" style="fill: rgb(166,206,227); fill-opacity: 0.92; stroke: rgb(166,206,227); stroke-opacity: 0.92; stroke-width: 1" />
	<path d="M338.958689166667 267 L 345.39660375 267  Q 432.3767416125 221 , 442.041201375 175 T 538.685799 83  L 530.957396625  83 Q 444.55797826875 129 , 434.958042895833 175 T 338.958689166667 267  Z" style="fill: rgb(166,206,227); fill-opacity: 0.92; stroke: rgb(166,206,227); stroke-opacity: 0.92; stroke-width: 1" />
	<path d="M361.670733333333 267 L 368.036439166667 267  Q 456.162465672917 221 , 465.954246395833 175 T 563.872053625 83  L 556.18386775  83 Q 468.6529572625 129 , 458.927300541667 175 T 361.670733333333 267  Z" style="fill: rgb(31,120,180); fill-opacity: 0.92; stroke: rgb(31,120,180); stroke-opacity: 0.92; stroke-width: 1" />
	<path d="M345.398154166667 267 L 351.66443 267  Q 443.6947871375 221 , 453.920382375 175 T 556.17633475 83  L 548.687651875  83 Q 457.20737790625 129 , 447.042903020833 175 T 345.398154166667 267  Z" style="fill: rgb(31,120,180); fill-opacity: 0.92; stroke: rgb(31,120,180); stroke-opacity: 0.92; stroke-width: 1" />
	<path d="M368.039412916667 267 L 374.374796666667 267  Q 467.557247835417 221 , 477.910853520833 175 T 581.446910375 83  L 573.8756075  83 Q 481.2493199375 129 , 470.957510208333 175 T 368.039412916667 267  Z" style="fill: rgb(178,223,138); fill-opacity: 0.92; stroke: rgb(178,223,138); stroke-opacity: 0.92; stroke-width: 1" />
	<path d="M384.37553375 267 L 388.609340416667 267  Q 477.694693741667 221 , 487.593066333333 175 T 586.57679225 83  L 581.44779125  83 Q 492.765275375 129 , 482.9116625 175 T 384.37553375 267  Z" style="fill: rgb(178,223,138); fill-opacity: 0.92; stroke: rgb(178,223,138); stroke-opacity: 0.92; stroke-width: 1" />
	<path d="M475.211840833333 267 L 476.806812916667 267  Q 527.321380029167 221 , 532.934109708333 175 T 589.0614065 83  L 587.155284125  83 Q 536.78073464375 129 , 531.183562479167 175 T 475.211840833333 267  Z" style="fill: rgb(178,223,138); fill-opacity: 0.92; stroke: rgb(178,223,138); stroke-opacity: 0.92; stroke-width: 1" />
	<path d="M464.73172 267 L 465.20790125 267  Q 520.0821048875 221 , 526.179238625 175 T 587.150576 83  L 586.581500375  83 Q 531.74909920625 129 , 525.6566101875 175 T 464.73172 267  Z" style="fill: rgb(178,223,138); fill-opacity: 0.92; stroke: rgb(178,223,138); stroke-opacity: 0.92; stroke-width: 1" />
	<path d="M476.807956666666 267 L 487.916514166667 267  Q 543.921320960417 221 , 550.144077270833 175 T 612.371640375 83  L 599.062773375  83 Q 544.04810585625 129 , 537.935365020833 175 T 476.807956666666 267  Z" style="fill: rgb(51,160,44); fill-opacity: 0.92; stroke: rgb(51,160,44); stroke-opacity: 0.92; stroke-width: 1" />
	<path d="M497.918395 267 L 499.486806666666 267  Q 551.129464547916 221 , 556.867537645833 175 T 614.248268625 83  L 612.373888125  83 Q 560.86891621875 129 , 555.1461415625 175 T 497.918395 267  Z" style="fill: rgb(51,160,44); fill-opacity: 0.92; stroke: rgb(51,160,44); stroke-opacity: 0.92; stroke-width: 1" />
	<path d="M499.489551666666 267 L 510.619840416666 267  Q 567.890434941667 221 , 574.253834333333 175 T 637.88782825 83  L 624.251549125  83 Q 568.10865026875 129 , 561.870550395833 175 T 499.489551666666 267  Z" style="fill: rgb(251,154,153); fill-opacity: 0.92; stroke: rgb(251,154,153); stroke-opacity: 0.92; stroke-width: 1" />
	<path d="M520.625432083333 267 L 521.915455 267  Q 574.79978749375 221 , 580.6758244375 175 T 639.436193875 83  L 637.89451075  83 Q 585.12342535 129 , 579.259971416667 175 T 520.625432083333 267  Z" style="fill: rgb(251,154,153); fill-opacity: 0.92; stroke: rgb(251,154,153); stroke-opacity: 0.92; stroke-width: 1" />
	<path d="M612.1109825 267 L 622.29104375 267  Q 641.336594675 221 , 643.452767 175 T 664.61449025 83  L 652.4486345  83 Q 634.2966911 129 , 632.2798085 175 T 612.1109825 267  Z" style="fill: rgb(227,26,28); fill-opacity: 0.92; stroke: rgb(227,26,28); stroke-opacity: 0.92; stroke-width: 1" />
	<path d="M521.918301666666 267 L 524.3501175 267  Q 581.94818143125 221 , 588.3479663125 175 T 652.345815125 83  L 649.439595875  83 Q 592.05501348125 129 , 585.678948770833 175 T 521.918301666666 267  Z" style="fill: rgb(227,26,28); fill-opacity: 0.92; stroke: rgb(227,26,28); stroke-opacity: 0.92; stroke-width: 1" />
	<path d="M679.584655 267 L 686.6229875 267  Q 688.0568739125 221 , 688.216194625 175 T 689.80940175 83  L 681.340396125  83 Q 680.55031261875 129 , 680.4625255625 175 T 679.584655 267  Z" style="fill: rgb(253,191,111); fill-opacity: 0.92; stroke: rgb(253,191,111); stroke-opacity: 0.92; stroke-width: 1" />
	<path d="M116.120574583333 267 L 123.8110225 267  Q 377.60160833125 221 , 405.8005623125 175 T 687.790102125 83  L 678.21575025  83 Q 425.2729212 129 , 397.168162416667 175 T 116.120574583333 267  Z" style="fill: rgb(253,191,111); fill-opacity: 0.92; stroke: rgb(253,191,111); stroke-opacity: 0.92; stroke-width: 1" />
	<path d="M622.302455833333 267 L 624.161481666667 267  Q 647.871232510417 221 , 650.505649270833 175 T 676.849816875 83  L 674.628128625  83 Q 651.08157586875 129 , 648.465292229167 175 T 622.302455833333 267  Z" style="fill: rgb(253,191,111); fill-opacity: 0.92; stroke: rgb(253,191,111); stroke-opacity: 0.92; stroke-width: 1" />
	<path d="M702.29225125 267 L 709.645623333333 267  Q 712.055079164583 221 , 712.322796479167 175 T 714.999969625 83  L 706.642349125  83 Q 704.68480508125 129 , 704.4673001875 175 T 702.29225125 267  Z" style="fill: rgb(255,127,0); fill-opacity: 0.92; stroke: rgb(255,127,0); stroke-opacity: 0.92; stroke-width: 1" />
	<path d="M686.626698333333 267 L 692.290446666667 267  Q 698.747832291667 221 , 699.465319583333 175 T 706.6401925 83  L 699.8138365  83 Q 693.879624325 129 , 693.220267416667 175 T 686.626698333333 267  Z" style="fill: rgb(255,127,0); fill-opacity: 0.92; stroke: rgb(255,127,0); stroke-opacity: 0.92; stroke-width: 1" />
	<path d="M725.000203333334 267 L 732.35377875 267  Q 735.87883029375 221 , 736.2705026875 175 T 740.187226625 83  L 731.399131625  83 Q 728.51961389375 129 , 728.199667479167 175 T 725.000203333334 267  Z" style="fill: rgb(202,178,214); fill-opacity: 0.92; stroke: rgb(202,178,214); stroke-opacity: 0.92; stroke-width: 1" />
	<path d="M709.6470975 267 L 714.998449583333 267  Q 722.377813358333 221 , 723.197742666667 175 T 731.39703575 83  L 725.001731375  83 Q 718.09214613125 129 , 717.3244144375 175 T 709.6470975 267  Z" style="fill: rgb(202,178,214); fill-opacity: 0.92; stroke: rgb(202,178,214); stroke-opacity: 0.92; stroke-width: 1" />
	<path d="M747.70896875 267 L 755.10499 267  Q 759.7234600375 221 , 760.236623375 175 T 765.36825675 83  L 756.587117625  83 Q 752.59195063125 129 , 752.1480431875 175 T 747.70896875 267  Z" style="fill: rgb(106,61,154); fill-opacity: 0.92; stroke: rgb(106,61,154); stroke-opacity: 0.92; stroke-width: 1" />
	<path d="M732.355100416667 267 L 737.706859166667 267  Q 746.201840966667 221 , 747.145727833333 175 T 756.5845965 83  L 750.188806125  83 Q 742.16363855625 129 , 741.271953270833 175 T 732.355100416667 267  Z" style="fill: rgb(106,61,154); fill-opacity: 0.92; stroke: rgb(106,61,154); stroke-opacity: 0.92; stroke-width: 1" />
	<path d="M770.423020833334 267 L 777.834724166667 267  Q 783.560295997917 221 , 784.196470645833 175 T 790.558217125 83  L 781.700624125  83 Q 776.62570264375 129 , 776.061822479167 175 T 770.423020833334 267  Z" style="fill: rgb(255,255,153); fill-opacity: 0.92; stroke: rgb(255,255,153); stroke-opacity: 0.92; stroke-width: 1" />
	<path d="M755.113835 267 L 760.414989166667 267  Q 769.989205572917 221 , 771.053007395833 175 T 781.691025625 83  L 775.37882725  83 Q 766.2595807375 129 , 765.246331125 175 T 755.113835 267  Z" style="fill: rgb(255,255,153); fill-opacity: 0.92; stroke: rgb(255,255,153); stroke-opacity: 0.92; stroke-width: 1" />
	<path d="M793.127872083334 267 L 800.242657916667 267  Q 807.218665504167 221 , 807.993777458333 175 T 815.744897 83  L 807.24214475  83 Q 800.89072205 129 , 800.185008416667 175 T 793.127872083334 267  Z" style="fill: rgb(177,89,40); fill-opacity: 0.92; stroke: rgb(177,89,40); stroke-opacity: 0.92; stroke-width: 1" />
	<path d="M911.462867916667 267 L 919.371543333334 267  Q 870.113867620834 221 , 864.640792541667 175 T 809.91004175 83  L 800.56256075  83 Q 850.467698975 129 , 856.012714333334 175 T 911.462867916667 267  Z" style="fill: rgb(177,89,40); fill-opacity: 0.92; stroke: rgb(177,89,40); stroke-opacity: 0.92; stroke-width: 1" />
	<path d="M777.83835875 267 L 783.124593333334 267  Q 793.975728202083 221 , 795.181409854167 175 T 807.238226375 83  L 800.56256075  83 Q 790.33666985 129 , 789.20045975 175 T 777.83835875 267  Z" style="fill: rgb(177,89,40); fill-opacity: 0.92; stroke: rgb(177,89,40); stroke-opacity: 0.92; stroke-width: 1" />
	<path d="M933.959963333334 267 L 942.08320625 267  Q 894.0086844125 221 , 888.667070875 175 T 835.2509355 83  L 825.77423925  83 Q 874.4578150875 129 , 879.867101291667 175 T 933.959963333334 267  Z" style="fill: rgb(166,206,227); fill-opacity: 0.92; stroke: rgb(166,206,227); stroke-opacity: 0.92; stroke-width: 1" />
	<path d="M800.24789375 267 L 805.826318333334 267  Q 817.771694239583 221 , 819.098958229167 175 T 832.371598125 83  L 825.75115425  83 Q 814.274687025 129 , 812.999524 175 T 800.24789375 267  Z" style="fill: rgb(166,206,227); fill-opacity: 0.92; stroke: rgb(166,206,227); stroke-opacity: 0.92; stroke-width: 1" />
	<path d="M815.833435 267 L 819.5548925 267  Q 827.30154935 221 , 828.162289 175 T 836.7696855 83  L 832.380103125  83 Q 824.93410246875 129 , 824.1067690625 175 T 815.833435 267  Z" style="fill: rgb(166,206,227); fill-opacity: 0.92; stroke: rgb(166,206,227); stroke-opacity: 0.92; stroke-width: 1" />
	<path d="M952.09045 267 L 956.017299583334 267  Q 903.627299364584 221 , 897.806188229167 175 T 839.595076875 83  L 835.282677375  83 Q 887.84617505625 129 , 893.6865636875 175 T 952.09045 267  Z" style="fill: rgb(166,206,227); fill-opacity: 0.92; stroke: rgb(166,206,227); stroke-opacity: 0.92; stroke-width: 1" />
	<path d="M980.707624583334 267 L 981.809487916667 267  Q 918.416163879167 221 , 911.372461208334 175 T 840.9354345 83  L 839.33023725  83 Q 902.95006155 129 , 910.018930916667 175 T 980.707624583334 267  Z" style="fill: rgb(166,206,227); fill-opacity: 0.92; stroke: rgb(166,206,227); stroke-opacity: 0.92; stroke-width: 1" />
	<path d="M1187.22108125 267 L 1179.1691575 267  Q 1035.89386 221 , 1019.9743825 175 T 860.7796075 83  L 850.937773375  83 Q 1002.26526191875 129 , 1019.0794273125 175 T 1187.22108125 267  Z" style="fill: rgb(31,120,180); fill-opacity: 0.92; stroke: rgb(31,120,180); stroke-opacity: 0.92; stroke-width: 1" />
	<path d="M997.500228750001 267 L 1004.19060708333 267  Q 942.061042889584 221 , 935.157757979167 175 T 866.124908875 83  L 858.1408705  83 Q 920.8525817125 129 , 927.820549625 175 T 997.500228750001 267  Z" style="fill: rgb(31,120,180); fill-opacity: 0.92; stroke: rgb(31,120,180); stroke-opacity: 0.92; stroke-width: 1" />
	<path d="M981.852899583334 267 L 987.498780000001 267  Q 929.28694160625 221 , 922.8189595625 175 T 858.139139125 83  L 850.9526875  83 Q 909.8577829375 129 , 916.402793541667 175 T 981.852899583334 267  Z" style="fill: rgb(31,120,180); fill-opacity: 0.92; stroke: rgb(31,120,180); stroke-opacity: 0.92; stroke-width: 1" />
	<path d="M1020.21128166667 267 L 1026.70534166667 267  Q 965.778275872917 221 , 959.008601895834 175 T 891.311862125 83  L 883.3201085  83 Q 944.921136425 129 , 951.765695083334 175 T 1020.21128166667 267  Z" style="fill: rgb(178,223,138); fill-opacity: 0.92; stroke: rgb(178,223,138); stroke-opacity: 0.92; stroke-width: 1" />
	<path d="M1004.19569041667 267 L 1010.20472416667 267  Q 953.103120579167 221 , 946.758497958334 175 T 883.31227175 83  L 876.130983875  83 Q 933.76010181875 129 , 940.163337145834 175 T 1004.19569041667 267  Z" style="fill: rgb(178,223,138); fill-opacity: 0.92; stroke: rgb(178,223,138); stroke-opacity: 0.92; stroke-width: 1" />
	<path d="M1164.76854125 267 L 1156.4591975 267  Q 1034.89969068125 221 , 1021.3930788125 175 T 886.326960125 83  L 876.130983875  83 Q 1006.01788469375 129 , 1020.4497625625 175 T 1164.76854125 267  Z" style="fill: rgb(178,223,138); fill-opacity: 0.92; stroke: rgb(178,223,138); stroke-opacity: 0.92; stroke-width: 1" />
	<path d="M1146.45632541667 267 L 1144.57284875 267  Q 1029.43894098125 221 , 1016.6462845625 175 T 888.719720375 83  L 886.3303925  83 Q 1003.3870623125 129 , 1016.39335895833 175 T 1146.45632541667 267  Z" style="fill: rgb(178,223,138); fill-opacity: 0.92; stroke: rgb(178,223,138); stroke-opacity: 0.92; stroke-width: 1" />
	<path d="M1146.45632541667 267 L 1134.67839458333 267  Q 1036.49721488333 221 , 1025.58819491667 175 T 916.49799525 83  L 902.803791  83 Q 1012.4474314875 129 , 1024.63005820833 175 T 1146.45632541667 267  Z" style="fill: rgb(51,160,44); fill-opacity: 0.92; stroke: rgb(51,160,44); stroke-opacity: 0.92; stroke-width: 1" />
	<path d="M1042.92063166667 267 L 1049.41331916667 267  Q 989.601819797917 221 , 982.956097645834 175 T 916.498876125 83  L 908.739643125  83 Q 969.12108796875 129 , 975.830137395834 175 T 1042.92063166667 267  Z" style="fill: rgb(51,160,44); fill-opacity: 0.92; stroke: rgb(51,160,44); stroke-opacity: 0.92; stroke-width: 1" />
	<path d="M1026.71416125 267 L 1032.91384541667 267  Q 977.031804829167 221 , 970.822689208334 175 T 908.731533 83  L 901.32240225  83 Q 957.7486938 129 , 964.01828175 175 T 1026.71416125 267  Z" style="fill: rgb(51,160,44); fill-opacity: 0.92; stroke: rgb(51,160,44); stroke-opacity: 0.92; stroke-width: 1" />
	<path d="M1021.79664625 267 L 1024.61601541667 267  Q 970.902926454167 221 , 964.934805458334 175 T 905.2535955 83  L 901.422822  83 Q 955.5910429125 129 , 961.609734125 175 T 1021.79664625 267  Z" style="fill: rgb(51,160,44); fill-opacity: 0.92; stroke: rgb(51,160,44); stroke-opacity: 0.92; stroke-width: 1" />
	<path d="M793.69108 267 L 799.99504875 267  Q 850.238967375 221 , 855.821625 175 T 911.64820125 83  L 902.394822  83 Q 853.4781381 129 , 848.042951 175 T 793.69108 267  Z" style="fill: rgb(51,160,44); fill-opacity: 0.92; stroke: rgb(51,160,44); stroke-opacity: 0.92; stroke-width: 1" />
	<path d="M1157.44348333333 267 L 1156.4591975 267  Q 1042.25563930625 221 , 1029.5663550625 175 T 902.673512625 83  L 901.3587915  83 Q 1016.596902825 129 , 1029.40113741667 175 T 1157.44348333333 267  Z" style="fill: rgb(51,160,44); fill-opacity: 0.92; stroke: rgb(51,160,44); stroke-opacity: 0.92; stroke-width: 1" />
	<path d="M1065.62538125 267 L 1072.09521916667 267  Q 1013.41136281667 221 , 1006.89093433333 175 T 941.6866495 83  L 933.911165875  83 Q 993.18256279375 129 , 999.7682735625 175 T 1065.62538125 267  Z" style="fill: rgb(251,154,153); fill-opacity: 0.92; stroke: rgb(251,154,153); stroke-opacity: 0.92; stroke-width: 1" />
	<path d="M1049.41497125 267 L 1055.6224075 267  Q 1000.850749525 221 , 994.76500975 175 T 933.907612 83  L 926.5008505  83 Q 981.8122048375 129 , 987.957910875 175 T 1049.41497125 267  Z" style="fill: rgb(251,154,153); fill-opacity: 0.92; stroke: rgb(251,154,153); stroke-opacity: 0.92; stroke-width: 1" />
	<path d="M1066.69473666667 267 L 1078.33188458333 267  Q 1027.95492111458 221 , 1022.35748072917 175 T 966.383076875 83  L 951.6876215  83 Q 1003.440823325 129 , 1009.19117908333 175 T 1066.69473666667 267  Z" style="fill: rgb(227,26,28); fill-opacity: 0.92; stroke: rgb(227,26,28); stroke-opacity: 0.92; stroke-width: 1" />
	<path d="M838.541971666667 267 L 851.249898333334 267  Q 903.055058283333 221 , 908.811187166667 175 T 966.372476 83  L 951.7022015  83 Q 900.780098075 129 , 895.122086583333 175 T 838.541971666667 267  Z" style="fill: rgb(227,26,28); fill-opacity: 0.92; stroke: rgb(227,26,28); stroke-opacity: 0.92; stroke-width: 1" />
	<path d="M861.257650416667 267 L 873.958079166667 267  Q 915.549328135417 221 , 920.170578020834 175 T 966.383076875 83  L 951.6876215  83 Q 910.9941345125 129 , 906.472635958334 175 T 861.257650416667 267  Z" style="fill: rgb(227,26,28); fill-opacity: 0.92; stroke: rgb(227,26,28); stroke-opacity: 0.92; stroke-width: 1" />
	<path d="M838.597329166667 267 L 851.249695 267  Q 902.89506308125 221 , 908.6334373125 175 T 966.017179625 83  L 951.6876215  83 Q 900.79698995 129 , 895.142475333334 175 T 838.597329166667 267  Z" style="fill: rgb(227,26,28); fill-opacity: 0.92; stroke: rgb(227,26,28); stroke-opacity: 0.92; stroke-width: 1" />
	<path d="M838.550664166667 267 L 850.2418225 267  Q 902.50538696875 221 , 908.3124496875 175 T 966.383076875 83  L 951.71258975  83 Q 900.7897232375 129 , 895.131626958334 175 T 838.550664166667 267  Z" style="fill: rgb(227,26,28); fill-opacity: 0.92; stroke: rgb(227,26,28); stroke-opacity: 0.92; stroke-width: 1" />
	<path d="M1066.82924166667 267 L 1078.33274875 267  Q 1027.31408599375 221 , 1021.6453456875 175 T 964.957942625 83  L 951.6876215  83 Q 1003.501350575 129 , 1009.25843158333 175 T 1066.82924166667 267  Z" style="fill: rgb(227,26,28); fill-opacity: 0.92; stroke: rgb(227,26,28); stroke-opacity: 0.92; stroke-width: 1" />
	<path d="M1094.40908583333 267 L 1101.04148875 267  Q 1048.769788 221 , 1042.96182125 175 T 984.88215375 83  L 976.875273375  83 Q 1029.76548898125 129 , 1035.64217960417 175 T 1094.40908583333 267  Z" style="fill: rgb(253,191,111); fill-opacity: 0.92; stroke: rgb(253,191,111); stroke-opacity: 0.92; stroke-width: 1" />
	<path d="M1111.04174291667 267 L 1117.07146583333 267  Q 1060.81718517083 221 , 1054.56670954167 175 T 992.06195325 83  L 984.8824575  83 Q 1041.6541359375 129 , 1047.96210020833 175 T 1111.04174291667 267  Z" style="fill: rgb(253,191,111); fill-opacity: 0.92; stroke: rgb(253,191,111); stroke-opacity: 0.92; stroke-width: 1" />
	<path d="M1114.66778625 267 L 1123.7489325 267  Q 1074.14374438125 221 , 1068.6320568125 175 T 1013.515181125 83  L 1002.06268225  83 Q 1052.73497905 129 , 1058.36523425 175 T 1114.66778625 267  Z" style="fill: rgb(255,127,0); fill-opacity: 0.92; stroke: rgb(255,127,0); stroke-opacity: 0.92; stroke-width: 1" />
	<path d="M1055.10774541667 267 L 1046.93948958333 267  Q 1033.57774304583 221 , 1032.09310454167 175 T 1017.2467195 83  L 1007.319805  83 Q 1028.8243781875 129 , 1031.21377520833 175 T 1055.10774541667 267  Z" style="fill: rgb(255,127,0); fill-opacity: 0.92; stroke: rgb(255,127,0); stroke-opacity: 0.92; stroke-width: 1" />
	<path d="M1133.75190625 267 L 1136.87139541667 267  Q 1083.04029125417 221 , 1077.05905745833 175 T 1017.2467195 83  L 1013.518735  83 Q 1067.6236620625 129 , 1073.635320625 175 T 1133.75190625 267  Z" style="fill: rgb(255,127,0); fill-opacity: 0.92; stroke: rgb(255,127,0); stroke-opacity: 0.92; stroke-width: 1" />
	<path d="M1214.5832825 267 L 1206.03293791667 267  Q 1132.41489517292 221 , 1124.23511264583 175 T 1042.437287375 83  L 1032.2192285  83 Q 1114.2830528 129 , 1123.4012555 175 T 1214.5832825 267  Z" style="fill: rgb(202,178,214); fill-opacity: 0.92; stroke: rgb(202,178,214); stroke-opacity: 0.92; stroke-width: 1" />
	<path d="M1225.5763625 267 L 1224.58335875 267  Q 1138.01945913125 221 , 1128.4012480625 175 T 1032.219137375 83  L 1031.032386125  83 Q 1118.57717549375 129 , 1128.3043743125 175 T 1225.5763625 267  Z" style="fill: rgb(202,178,214); fill-opacity: 0.92; stroke: rgb(202,178,214); stroke-opacity: 0.92; stroke-width: 1" />
	<path d="M1136.87721583333 267 L 1140.07140458333 267  Q 1091.00044275833 221 , 1085.54811366667 175 T 1031.02482275 83  L 1027.253675375  83 Q 1076.58426858125 129 , 1082.06544560417 175 T 1136.87721583333 267  Z" style="fill: rgb(202,178,214); fill-opacity: 0.92; stroke: rgb(202,178,214); stroke-opacity: 0.92; stroke-width: 1" />
	<path d="M1214.53557541667 267 L 1201.87505083333 267  Q 1141.32507500833 221 , 1134.59729991667 175 T 1067.319549 83  L 1052.4575475  83 Q 1125.3926600625 129 , 1133.49656145833 175 T 1214.53557541667 267  Z" style="fill: rgb(106,61,154); fill-opacity: 0.92; stroke: rgb(106,61,154); stroke-opacity: 0.92; stroke-width: 1" />
	<path d="M1213.95266958333 267 L 1202.45411875 267  Q 1141.1580483625 221 , 1134.347373875 175 T 1066.240629 83  L 1052.437773375  83 Q 1125.11947666875 129 , 1133.19522147917 175 T 1213.95266958333 267  Z" style="fill: rgb(106,61,154); fill-opacity: 0.92; stroke: rgb(106,61,154); stroke-opacity: 0.92; stroke-width: 1" />
	<path d="M1214.52083375 267 L 1201.88956375 267  Q 1141.3252932625 221 , 1134.595929875 175 T 1067.302296 83  L 1054.473627375  83 Q 1126.49487024375 129 , 1134.4972305625 175 T 1214.52083375 267  Z" style="fill: rgb(106,61,154); fill-opacity: 0.92; stroke: rgb(106,61,154); stroke-opacity: 0.92; stroke-width: 1" />
	<path d="M1214.53557541667 267 L 1202.20056208333 267  Q 1141.25411842708 221 , 1134.48229135417 175 T 1066.764020625 83  L 1053.818924625  83 Q 1126.14141748125 129 , 1134.17725002083 175 T 1214.53557541667 267  Z" style="fill: rgb(106,61,154); fill-opacity: 0.92; stroke: rgb(106,61,154); stroke-opacity: 0.92; stroke-width: 1" />
	<path d="M1211.49287 267 L 1201.87505083333 267  Q 1140.72192774583 221 , 1133.92713629167 175 T 1065.97922175 83  L 1052.437773375  83 Q 1124.01256685625 129 , 1131.9653216875 175 T 1211.49287 267  Z" style="fill: rgb(106,61,154); fill-opacity: 0.92; stroke: rgb(106,61,154); stroke-opacity: 0.92; stroke-width: 1" />
	<path d="M1254.94256625 267 L 1258.86440875 267  Q 1172.806647475 221 , 1163.244674 175 T 1067.62493925 83  L 1062.938988  83 Q 1149.3405982125 129 , 1158.940777125 175 T 1254.94256625 267  Z" style="fill: rgb(106,61,154); fill-opacity: 0.92; stroke: rgb(106,61,154); stroke-opacity: 0.92; stroke-width: 1" />
	<path d="M1270.00010166667 267 L 1281.43503458333 267  Q 1196.55482567708 221 , 1187.12369135417 175 T 1092.812348125 83  L 1078.982185375  83 Q 1164.94024770625 129 , 1174.49114352083 175 T 1270.00010166667 267  Z" style="fill: rgb(255,255,153); fill-opacity: 0.92; stroke: rgb(255,255,153); stroke-opacity: 0.92; stroke-width: 1" />
	<path d="M1258.86458666667 267 L 1260 267  Q 1178.54192874375 221 , 1169.4910319375 175 T 1078.982063875 83  L 1077.625151875  83 Q 1159.18289753125 129 , 1168.24486927083 175 T 1258.86458666667 267  Z" style="fill: rgb(255,255,153); fill-opacity: 0.92; stroke: rgb(255,255,153); stroke-opacity: 0.92; stroke-width: 1" />
	<path d="M1341.81257708333 267 L 1350.83323166667 267  Q 1245.69739507917 221 , 1234.01563545833 175 T 1117.19803925 83  L 1106.417617625  83 Q 1212.34534938125 129 , 1224.11509735417 175 T 1341.81257708333 267  Z" style="fill: rgb(177,89,40); fill-opacity: 0.92; stroke: rgb(177,89,40); stroke-opacity: 0.92; stroke-width: 1" />
	<path d="M1294.47868041667 267 L 1298.60428833333 267  Q 1212.11879662083 221 , 1202.50929754167 175 T 1106.41430675 83  L 1102.812651875  83 Q 1189.06236471875 129 , 1198.64566614583 175 T 1294.47868041667 267  Z" style="fill: rgb(177,89,40); fill-opacity: 0.92; stroke: rgb(177,89,40); stroke-opacity: 0.92; stroke-width: 1" />
	<path d="M1295.17835041667 267 L 1299.37875958333 267  Q 1212.54270549583 221 , 1202.89425504167 175 T 1106.4097505 83  L 1102.812651875  83 Q 1189.37721621875 129 , 1198.99550114583 175 T 1295.17835041667 267  Z" style="fill: rgb(177,89,40); fill-opacity: 0.92; stroke: rgb(177,89,40); stroke-opacity: 0.92; stroke-width: 1" />
	<path d="M1279.07469041667 267 L 1282.67902791667 267  Q 1203.35990339167 221 , 1194.54666733333 175 T 1106.41430675 83  L 1102.81292525  83 Q 1182.130719575 129 , 1190.94380783333 175 T 1279.07469041667 267  Z" style="fill: rgb(177,89,40); fill-opacity: 0.92; stroke: rgb(177,89,40); stroke-opacity: 0.92; stroke-width: 1" />
	<path d="M1295.75952791667 267 L 1300.26493708333 267  Q 1213.03058152708 221 , 1203.33787535417 175 T 1106.410813625 83  L 1102.812651875  83 Q 1189.63874609375 129 , 1199.28608989583 175 T 1295.75952791667 267  Z" style="fill: rgb(177,89,40); fill-opacity: 0.92; stroke: rgb(177,89,40); stroke-opacity: 0.92; stroke-width: 1" />
	<path d="M1295.882265 267 L 1301.01625375 267  Q 1213.4453776 221 , 1203.71528025 175 T 1106.41430675 83  L 1102.812651875  83 Q 1189.69397778125 129 , 1199.3474584375 175 T 1295.882265 267  Z" style="fill: rgb(177,89,40); fill-opacity: 0.92; stroke: rgb(177,89,40); stroke-opacity: 0.92; stroke-width: 1" />
	<path d="M1296.49429833333 267 L 1301.56799875 267  Q 1213.74883735 221 , 1203.99115275 175 T 1106.41430675 83  L 1102.812651875  83 Q 1189.96939278125 129 , 1199.65347510417 175 T 1296.49429833333 267  Z" style="fill: rgb(177,89,40); fill-opacity: 0.92; stroke: rgb(177,89,40); stroke-opacity: 0.92; stroke-width: 1" />
	<path d="M1360.83338416667 267 L 1361.50418083333 267  Q 1251.92725845208 221 , 1239.75204485417 175 T 1117.999908875 83  L 1117.1982215  83 Q 1226.8340447 129 , 1239.01580283333 175 T 1360.83338416667 267  Z" style="fill: rgb(177,89,40); fill-opacity: 0.92; stroke: rgb(177,89,40); stroke-opacity: 0.92; stroke-width: 1" />
	<path d="M1225.56284083333 267 L 1234.27567416667 267  Q 1193.28596845417 221 , 1188.73155670833 175 T 1143.18743925 83  L 1132.005095625  83 Q 1174.10608096875 129 , 1178.78396822917 175 T 1225.56284083333 267  Z" style="fill: rgb(166,206,227); fill-opacity: 0.92; stroke: rgb(166,206,227); stroke-opacity: 0.92; stroke-width: 1" />
	<path d="M1361.50448583333 267 L 1364.85252166667 267  Q 1260.06958070417 221 , 1248.42703170833 175 T 1132.00154175 83  L 1128.000273375  83 Q 1233.07716898125 129 , 1244.75237960417 175 T 1361.50448583333 267  Z" style="fill: rgb(166,206,227); fill-opacity: 0.92; stroke: rgb(166,206,227); stroke-opacity: 0.92; stroke-width: 1" />
	<path d="M1247.29176833333 267 L 1254.93290791667 267  Q 1215.10681698542 221 , 1210.68169577083 175 T 1166.430483625 83  L 1156.792131625  83 Q 1197.51696814375 129 , 1202.04194997917 175 T 1247.29176833333 267  Z" style="fill: rgb(31,120,180); fill-opacity: 0.92; stroke: rgb(31,120,180); stroke-opacity: 0.92; stroke-width: 1" />
	<path d="M1234.27580125 267 L 1237.29151416667 267  Q 1201.06665533542 221 , 1197.04167102083 175 T 1156.791827875 83  L 1153.187591125  83 Q 1189.67728568125 129 , 1193.7316961875 175 T 1234.27580125 267  Z" style="fill: rgb(31,120,180); fill-opacity: 0.92; stroke: rgb(31,120,180); stroke-opacity: 0.92; stroke-width: 1" />
	<path d="M1315.41679375 267 L 1317.74826458333 267  Q 1250.53017250208 221 , 1243.06149560417 175 T 1168.374726625 83  L 1165.58845825  83 Q 1233.011209225 129 , 1240.502626 175 T 1315.41679375 267  Z" style="fill: rgb(31,120,180); fill-opacity: 0.92; stroke: rgb(31,120,180); stroke-opacity: 0.92; stroke-width: 1" />
	<path d="M1272.04985416667 267 L 1271.82791583333 267  Q 1223.12280648333 221 , 1217.71112766667 175 T 1163.5943395 83  L 1163.329621375  83 Q 1212.25372613125 129 , 1217.68973777083 175 T 1272.04985416667 267  Z" style="fill: rgb(31,120,180); fill-opacity: 0.92; stroke: rgb(31,120,180); stroke-opacity: 0.92; stroke-width: 1" />
	<path d="M1275.28356583333 267 L 1275.05954333333 267  Q 1222.75103670833 221 , 1216.93898041667 175 T 1158.8184175 83  L 1158.55093525  83 Q 1211.0806190125 129 , 1216.91725054167 175 T 1275.28356583333 267  Z" style="fill: rgb(31,120,180); fill-opacity: 0.92; stroke: rgb(31,120,180); stroke-opacity: 0.92; stroke-width: 1" />
	<path d="M1317.74867125 267 L 1328.12497458333 267  Q 1266.31788989583 221 , 1259.45043604167 175 T 1190.7758975 83  L 1178.375212625  83 Q 1241.09326900625 129 , 1248.0619419375 175 T 1317.74867125 267  Z" style="fill: rgb(178,223,138); fill-opacity: 0.92; stroke: rgb(178,223,138); stroke-opacity: 0.92; stroke-width: 1" />
	<path d="M1338.12520333333 267 L 1340.10556833333 267  Q 1273.97232646458 221 , 1266.62418847917 175 T 1193.142808625 83  L 1190.776170875  83 Q 1257.08323548125 129 , 1264.45068710417 175 T 1338.12520333333 267  Z" style="fill: rgb(178,223,138); fill-opacity: 0.92; stroke: rgb(178,223,138); stroke-opacity: 0.92; stroke-width: 1" />
	<path d="M1365.19803583333 267 L 1365.54634583333 267  Q 1288.15357420208 221 , 1279.55437735417 175 T 1193.562408875 83  L 1193.146089125  83 Q 1270.56946514375 129 , 1279.17206247917 175 T 1365.19803583333 267  Z" style="fill: rgb(178,223,138); fill-opacity: 0.92; stroke: rgb(178,223,138); stroke-opacity: 0.92; stroke-width: 1" />
	<path d="M1365.05921 267 L 1365.40752 267  Q 1288.07721999375 221 , 1279.4849644375 175 T 1193.562408875 83  L 1193.146089125  83 Q 1270.50699351875 129 , 1279.1026495625 175 T 1365.05921 267  Z" style="fill: rgb(178,223,138); fill-opacity: 0.92; stroke: rgb(178,223,138); stroke-opacity: 0.92; stroke-width: 1" />
	<path d="M1364.66197291667 267 L 1365.01033375 267  Q 1287.85876755625 221 , 1279.2863713125 175 T 1193.562408875 83  L 1193.146089125  83 Q 1270.32823683125 129 , 1278.90403102083 175 T 1364.66197291667 267  Z" style="fill: rgb(178,223,138); fill-opacity: 0.92; stroke: rgb(178,223,138); stroke-opacity: 0.92; stroke-width: 1" />
	<path d="M1364.52314708333 267 L 1364.87145708333 267  Q 1287.78238538958 221 , 1279.21693297917 175 T 1193.562408875 83  L 1193.146089125  83 Q 1270.26576520625 129 , 1278.83461810417 175 T 1364.52314708333 267  Z" style="fill: rgb(178,223,138); fill-opacity: 0.92; stroke: rgb(178,223,138); stroke-opacity: 0.92; stroke-width: 1" />
	<path d="M1364.80079875 267 L 1365.26869416667 267  Q 1288.00086578542 221 , 1279.41555152083 175 T 1193.562408875 83  L 1193.146089125  83 Q 1270.39070845625 129 , 1278.9734439375 175 T 1364.80079875 267  Z" style="fill: rgb(178,223,138); fill-opacity: 0.92; stroke: rgb(178,223,138); stroke-opacity: 0.92; stroke-width: 1" />
	<path d="M1364.43680666667 267 L 1364.73263125 267  Q 1287.70603118125 221 , 1279.1475200625 175 T 1193.562408875 83  L 1193.208843875  83 Q 1270.26142713125 129 , 1278.82282527083 175 T 1364.43680666667 267  Z" style="fill: rgb(178,223,138); fill-opacity: 0.92; stroke: rgb(178,223,138); stroke-opacity: 0.92; stroke-width: 1" />
	<path d="M1365.40764708333 267 L 1373.54164125 267  Q 1301.4253557375 221 , 1293.412435125 175 T 1213.283229 83  L 1203.56256075  83 Q 1276.3928496 129 , 1284.48510391667 175 T 1365.40764708333 267  Z" style="fill: rgb(51,160,44); fill-opacity: 0.92; stroke: rgb(51,160,44); stroke-opacity: 0.92; stroke-width: 1" />
	<path d="M1383.54187 267 L 1387.33429083333 267  Q 1311.47130528333 221 , 1303.04208466667 175 T 1218.7498785 83  L 1213.283502375  83 Q 1289.89976780625 129 , 1298.4126861875 175 T 1383.54187 267  Z" style="fill: rgb(51,160,44); fill-opacity: 0.92; stroke: rgb(51,160,44); stroke-opacity: 0.92; stroke-width: 1" />
	<path d="M227.916666666667 65 Q 221.25 65 , 221.25 71.6666666666667 L  221.25 78.3333333333333  Q 221.25 85 , 227.916666666667 85   L 229.770833333333 85  Q 236.4375 85 , 236.4375 78.3333333333333  L 236.4375 71.6666666666667 Q 236.4375 65 ,229.770833333333 65  Z" style="fill: rgb(27,158,119); stroke: rgb(27,158,119); stroke-width: 1" />
	<path d="M253.104166666667 65 Q 246.4375 65 , 246.4375 71.6666666666667 L  246.4375 78.3333333333333  Q 246.4375 85 , 253.104166666667 85   L 254.958333333333 85  Q 261.625 85 , 261.625 78.3333333333333  L 261.625 71.6666666666667 Q 261.625 65 ,254.958333333333 65  Z" style="fill: rgb(27,158,119); stroke: rgb(27,158,119); stroke-width: 1" />
	<path d="M278.291666666667 65 Q 271.625 65 , 271.625 71.6666666666667 L  271.625 78.3333333333333  Q 271.625 85 , 278.291666666667 85   L 280.145833333333 85  Q 286.8125 85 , 286.8125 78.3333333333333  L 286.8125 71.6666666666667 Q 286.8125 65 ,280.145833333333 65  Z" style="fill: rgb(27,158,119); stroke: rgb(27,158,119); stroke-width: 1" />
	<path d="M303.479166666667 65 Q 296.8125 65 , 296.8125 71.6666666666667 L  296.8125 78.3333333333333  Q 296.8125 85 , 303.479166666667 85   L 305.333333333333 85  Q 312 85 , 312 78.3333333333333  L 312 71.6666666666667 Q 312 65 ,305.333333333333 65  Z" style="fill: rgb(27,158,119); stroke: rgb(27,158,119); stroke-width: 1" />
	<path d="M328.666666666667 65 Q 322 65 , 322 71.6666666666667 L  322 78.3333333333333  Q 322 85 , 328.666666666667 85   L 330.520833333333 85  Q 337.1875 85 , 337.1875 78.3333333333333  L 337.1875 71.6666666666667 Q 337.1875 65 ,330.520833333333 65  Z" style="fill: rgb(27,158,119); stroke: rgb(27,158,119); stroke-width: 1" />
	<path d="M353.854166666667 65 Q 347.1875 65 , 347.1875 71.6666666666667 L  347.1875 78.3333333333333  Q 347.1875 85 , 353.854166666667 85   L 355.708333333333 85  Q 362.375 85 , 362.375 78.3333333333333  L 362.375 71.6666666666667 Q 362.375 65 ,355.708333333333 65  Z" style="fill: rgb(27,158,119); stroke: rgb(27,158,119); stroke-width: 1" />
	<path d="M379.041666666667 65 Q 372.375 65 , 372.375 71.6666666666667 L  372.375 78.3333333333333  Q 372.375 85 , 379.041666666667 85   L 380.895833333333 85  Q 387.5625 85 , 387.5625 78.3333333333333  L 387.5625 71.6666666666667 Q 387.5625 65 ,380.895833333333 65  Z" style="fill: rgb(27,158,119); stroke: rgb(27,158,119); stroke-width: 1" />
	<path d="M404.229166666667 65 Q 397.5625 65 , 397.5625 71.6666666666667 L  397.5625 78.3333333333333  Q 397.5625 85 , 404.229166666667 85   L 406.083333333333 85  Q 412.75 85 , 412.75 78.3333333333333  L 412.75 71.6666666666667 Q 412.75 65 ,406.083333333333 65  Z" style="fill: rgb(27,158,119); stroke: rgb(27,158,119); stroke-width: 1" />
	<path d="M429.416666666667 65 Q 422.75 65 , 422.75 71.6666666666667 L  422.75 78.3333333333333  Q 422.75 85 , 429.416666666667 85   L 431.270833333333 85  Q 437.9375 85 , 437.9375 78.3333333333333  L 437.9375 71.6666666666667 Q 437.9375 65 ,431.270833333333 65  Z" style="fill: rgb(27,158,119); stroke: rgb(27,158,119); stroke-width: 1" />
	<path d="M454.604166666667 65 Q 447.9375 65 , 447.9375 71.6666666666667 L  447.9375 78.3333333333333  Q 447.9375 85 , 454.604166666667 85   L 456.458333333333 85  Q 463.125 85 , 463.125 78.3333333333333  L 463.125 71.6666666666667 Q 463.125 65 ,456.458333333333 65  Z" style="fill: rgb(27,158,119); stroke: rgb(27,158,119); stroke-width: 1" />
	<path d="M479.791666666667 65 Q 473.125 65 , 473.125 71.6666666666667 L  473.125 78.3333333333333  Q 473.125 85 , 479.791666666667 85   L 481.645833333333 85  Q 488.3125 85 , 488.3125 78.3333333333333  L 488.3125 71.6666666666667 Q 488.3125 65 ,481.645833333333 65  Z" style="fill: rgb(27,158,119); stroke: rgb(27,158,119); stroke-width: 1" />
	<path d="M504.979166666667 65 Q 498.3125 65 , 498.3125 71.6666666666667 L  498.3125 78.3333333333333  Q 498.3125 85 , 504.979166666667 85   L 506.833333333333 85  Q 513.5 85 , 513.5 78.3333333333333  L 513.5 71.6666666666667 Q 513.5 65 ,506.833333333333 65  Z" style="fill: rgb(27,158,119); stroke: rgb(27,158,119); stroke-width: 1" />
	<path d="M530.166666666667 65 Q 523.5 65 , 523.5 71.6666666666667 L  523.5 78.3333333333333  Q 523.5 85 , 530.166666666667 85   L 532.020833333333 85  Q 538.6875 85 , 538.6875 78.3333333333333  L 538.6875 71.6666666666667 Q 538.6875 65 ,532.020833333333 65  Z" style="fill: rgb(27,158,119); stroke: rgb(27,158,119); stroke-width: 1" />
	<path d="M555.354166666667 65 Q 548.6875 65 , 548.6875 71.6666666666667 L  548.6875 78.3333333333333  Q 548.6875 85 , 555.354166666667 85   L 557.208333333333 85  Q 563.875 85 , 563.875 78.3333333333333  L 563.875 71.6666666666667 Q 563.875 65 ,557.208333333333 65  Z" style="fill: rgb(27,158,119); stroke: rgb(27,158,119); stroke-width: 1" />
	<path d="M580.541666666667 65 Q 573.875 65 , 573.875 71.6666666666667 L  573.875 78.3333333333333  Q 573.875 85 , 580.541666666667 85   L 582.395833333333 85  Q 589.0625 85 , 589.0625 78.3333333333333  L 589.0625 71.6666666666667 Q 589.0625 65 ,582.395833333333 65  Z" style="fill: rgb(27,158,119); stroke: rgb(27,158,119); stroke-width: 1" />
	<path d="M605.729166666667 65 Q 599.0625 65 , 599.0625 71.6666666666667 L  599.0625 78.3333333333333  Q 599.0625 85 , 605.729166666667 85   L 607.583333333333 85  Q 614.25 85 , 614.25 78.3333333333333  L 614.25 71.6666666666667 Q 614.25 65 ,607.583333333333 65  Z" style="fill: rgb(27,158,119); stroke: rgb(27,158,119); stroke-width: 1" />
	<path d="M630.916666666667 65 Q 624.25 65 , 624.25 71.6666666666667 L  624.25 78.3333333333333  Q 624.25 85 , 630.916666666667 85   L 632.770833333333 85  Q 639.4375 85 , 639.4375 78.3333333333333  L 639.4375 71.6666666666667 Q 639.4375 65 ,632.770833333333 65  Z" style="fill: rgb(27,158,119); stroke: rgb(27,158,119); stroke-width: 1" />
	<path d="M656.104166666667 65 Q 649.4375 65 , 649.4375 71.6666666666667 L  649.4375 78.3333333333333  Q 649.4375 85 , 656.104166666667 85   L 657.958333333333 85  Q 664.625 85 , 664.625 78.3333333333333  L 664.625 71.6666666666667 Q 664.625 65 ,657.958333333333 65  Z" style="fill: rgb(27,158,119); stroke: rgb(27,158,119); stroke-width: 1" />
	<path d="M681.291666666667 65 Q 674.625 65 , 674.625 71.6666666666667 L  674.625 78.3333333333333  Q 674.625 85 , 681.291666666667 85   L 683.145833333333 85  Q 689.8125 85 , 689.8125 78.3333333333333  L 689.8125 71.6666666666667 Q 689.8125 65 ,683.145833333333 65  Z" style="fill: rgb(27,158,119); stroke: rgb(27,158,119); stroke-width: 1" />
	<path d="M706.479166666667 65 Q 699.8125 65 , 699.8125 71.6666666666667 L  699.8125 78.3333333333333  Q 699.8125 85 , 706.479166666667 85   L 708.333333333333 85  Q 715 85 , 715 78.3333333333333  L 715 71.6666666666667 Q 715 65 ,708.333333333333 65  Z" style="fill: rgb(27,158,119); stroke: rgb(27,158,119); stroke-width: 1" />
	<path d="M731.666666666667 65 Q 725 65 , 725 71.6666666666667 L  725 78.3333333333333  Q 725 85 , 731.666666666667 85   L 733.520833333333 85  Q 740.1875 85 , 740.1875 78.3333333333333  L 740.1875 71.6666666666667 Q 740.1875 65 ,733.520833333333 65  Z" style="fill: rgb(27,158,119); stroke: rgb(27,158,119); stroke-width: 1" />
	<path d="M756.854166666667 65 Q 750.1875 65 , 750.1875 71.6666666666667 L  750.1875 78.3333333333333  Q 750.1875 85 , 756.854166666667 85   L 758.708333333333 85  Q 765.375 85 , 765.375 78.3333333333333  L 765.375 71.6666666666667 Q 765.375 65 ,758.708333333333 65  Z" style="fill: rgb(27,158,119); stroke: rgb(27,158,119); stroke-width: 1" />
	<path d="M782.041666666667 65 Q 775.375 65 , 775.375 71.6666666666667 L  775.375 78.3333333333333  Q 775.375 85 , 782.041666666667 85   L 783.895833333333 85  Q 790.5625 85 , 790.5625 78.3333333333333  L 790.5625 71.6666666666667 Q 790.5625 65 ,783.895833333333 65  Z" style="fill: rgb(27,158,119); stroke: rgb(27,158,119); stroke-width: 1" />
	<path d="M807.229166666667 65 Q 800.5625 65 , 800.5625 71.6666666666667 L  800.5625 78.3333333333333  Q 800.5625 85 , 807.229166666667 85   L 809.083333333333 85  Q 815.75 85 , 815.75 78.3333333333333  L 815.75 71.6666666666667 Q 815.75 65 ,809.083333333333 65  Z" style="fill: rgb(27,158,119); stroke: rgb(27,158,119); stroke-width: 1" />
	<path d="M832.416666666667 65 Q 825.75 65 , 825.75 71.6666666666667 L  825.75 78.3333333333333  Q 825.75 85 , 832.416666666667 85   L 834.270833333333 85  Q 840.9375 85 , 840.9375 78.3333333333333  L 840.9375 71.6666666666667 Q 840.9375 65 ,834.270833333333 65  Z" style="fill: rgb(27,158,119); stroke: rgb(27,158,119); stroke-width: 1" />
	<path d="M857.604166666667 65 Q 850.9375 65 , 850.9375 71.6666666666667 L  850.9375 78.3333333333333  Q 850.9375 85 , 857.604166666667 85   L 859.458333333333 85  Q 866.125 85 , 866.125 78.3333333333333  L 866.125 71.6666666666667 Q 866.125 65 ,859.458333333333 65  Z" style="fill: rgb(27,158,119); stroke: rgb(27,158,119); stroke-width: 1" />
	<path d="M882.791666666667 65 Q 876.125 65 , 876.125 71.6666666666667 L  876.125 78.3333333333333  Q 876.125 85 , 882.791666666667 85   L 884.645833333333 85  Q 891.3125 85 , 891.3125 78.3333333333333  L 891.3125 71.6666666666667 Q 891.3125 65 ,884.645833333333 65  Z" style="fill: rgb(27,158,119); stroke: rgb(27,158,119); stroke-width: 1" />
	<path d="M907.979166666667 65 Q 901.3125 65 , 901.3125 71.6666666666667 L  901.3125 78.3333333333333  Q 901.3125 85 , 907.979166666667 85   L 909.833333333333 85  Q 916.5 85 , 916.5 78.3333333333333  L 916.5 71.6666666666667 Q 916.5 65 ,909.833333333333 65  Z" style="fill: rgb(27,158,119); stroke: rgb(27,158,119); stroke-width: 1" />
	<path d="M933.166666666667 65 Q 926.5 65 , 926.5 71.6666666666667 L  926.5 78.3333333333333  Q 926.5 85 , 933.166666666667 85   L 935.020833333333 85  Q 941.6875 85 , 941.6875 78.3333333333333  L 941.6875 71.6666666666667 Q 941.6875 65 ,935.020833333333 65  Z" style="fill: rgb(27,158,119); stroke: rgb(27,158,119); stroke-width: 1" />
	<path d="M958.354166666667 65 Q 951.6875 65 , 951.6875 71.6666666666667 L  951.6875 78.3333333333333  Q 951.6875 85 , 958.354166666667 85   L 960.208333333333 85  Q 966.875 85 , 966.875 78.3333333333333  L 966.875 71.6666666666667 Q 966.875 65 ,960.208333333333 65  Z" style="fill: rgb(27,158,119); stroke: rgb(27,158,119); stroke-width: 1" />
	<path d="M983.541666666667 65 Q 976.875 65 , 976.875 71.6666666666667 L  976.875 78.3333333333333  Q 976.875 85 , 983.541666666667 85   L 985.395833333333 85  Q 992.0625 85 , 992.0625 78.3333333333333  L 992.0625 71.6666666666667 Q 992.0625 65 ,985.395833333333 65  Z" style="fill: rgb(27,158,119); stroke: rgb(27,158,119); stroke-width: 1" />
	<path d="M1008.72916666667 65 Q 1002.0625 65 , 1002.0625 71.6666666666667 L  1002.0625 78.3333333333333  Q 1002.0625 85 , 1008.72916666667 85   L 1010.58333333333 85  Q 1017.25 85 , 1017.25 78.3333333333333  L 1017.25 71.6666666666667 Q 1017.25 65 ,1010.58333333333 65  Z" style="fill: rgb(27,158,119); stroke: rgb(27,158,119); stroke-width: 1" />
	<path d="M1033.91666666667 65 Q 1027.25 65 , 1027.25 71.6666666666667 L  1027.25 78.3333333333333  Q 1027.25 85 , 1033.91666666667 85   L 1035.77083333333 85  Q 1042.4375 85 , 1042.4375 78.3333333333333  L 1042.4375 71.6666666666667 Q 1042.4375 65 ,1035.77083333333 65  Z" style="fill: rgb(27,158,119); stroke: rgb(27,158,119); stroke-width: 1" />
	<path d="M1059.10416666667 65 Q 1052.4375 65 , 1052.4375 71.6666666666667 L  1052.4375 78.3333333333333  Q 1052.4375 85 , 1059.10416666667 85   L 1060.95833333333 85  Q 1067.625 85 , 1067.625 78.3333333333333  L 1067.625 71.6666666666667 Q 1067.625 65 ,1060.95833333333 65  Z" style="fill: rgb(27,158,119); stroke: rgb(27,158,119); stroke-width: 1" />
	<path d="M1084.29166666667 65 Q 1077.625 65 , 1077.625 71.6666666666667 L  1077.625 78.3333333333333  Q 1077.625 85 , 1084.29166666667 85   L 1086.14583333333 85  Q 1092.8125 85 , 1092.8125 78.3333333333333  L 1092.8125 71.6666666666667 Q 1092.8125 65 ,1086.14583333333 65  Z" style="fill: rgb(27,158,119); stroke: rgb(27,158,119); stroke-width: 1" />
	<path d="M1109.47916666667 65 Q 1102.8125 65 , 1102.8125 71.6666666666667 L  1102.8125 78.3333333333333  Q 1102.8125 85 , 1109.47916666667 85   L 1111.33333333333 85  Q 1118 85 , 1118 78.3333333333333  L 1118 71.6666666666667 Q 1118 65 ,1111.33333333333 65  Z" style="fill: rgb(27,158,119); stroke: rgb(27,158,119); stroke-width: 1" />
	<path d="M1134.66666666667 65 Q 1128 65 , 1128 71.6666666666667 L  1128 78.3333333333333  Q 1128 85 , 1134.66666666667 85   L 1136.52083333333 85  Q 1143.1875 85 , 1143.1875 78.3333333333333  L 1143.1875 71.6666666666667 Q 1143.1875 65 ,1136.52083333333 65  Z" style="fill: rgb(27,158,119); stroke: rgb(27,158,119); stroke-width: 1" />
	<path d="M1159.85416666667 65 Q 1153.1875 65 , 1153.1875 71.6666666666667 L  1153.1875 78.3333333333333  Q 1153.1875 85 , 1159.85416666667 85   L 1161.70833333333 85  Q 1168.375 85 , 1168.375 78.3333333333333  L 1168.375 71.6666666666667 Q 1168.375 65 ,1161.70833333333 65  Z" style="fill: rgb(27,158,119); stroke: rgb(27,158,119); stroke-width: 1" />
	<path d="M1185.04166666667 65 Q 1178.375 65 , 1178.375 71.6666666666667 L  1178.375 78.3333333333333  Q 1178.375 85 , 1185.04166666667 85   L 1186.89583333333 85  Q 1193.5625 85 , 1193.5625 78.3333333333333  L 1193.5625 71.6666666666667 Q 1193.5625 65 ,1186.89583333333 65  Z" style="fill: rgb(27,158,119); stroke: rgb(27,158,119); stroke-width: 1" />
	<path d="M1210.22916666667 65 Q 1203.5625 65 , 1203.5625 71.6666666666667 L  1203.5625 78.3333333333333  Q 1203.5625 85 , 1210.22916666667 85   L 1212.08333333333 85  Q 1218.75 85 , 1218.75 78.3333333333333  L 1218.75 71.6666666666667 Q 1218.75 65 ,1212.08333333333 65  Z" style="fill: rgb(27,158,119); stroke: rgb(27,158,119); stroke-width: 1" />
	<path d="M50.1041666666666 265 Q 43.7499999999999 265 , 43.7499999999999 271.354166666667 L  43.7499999999999 278.645833333333  Q 43.7499999999999 285 , 50.1041666666666 285   L 50.1041666666666 285  Q 56.4583333333333 285 , 56.4583333333333 278.645833333333  L 56.4583333333333 271.354166666667 Q 56.4583333333333 265 ,50.1041666666666 265  Z" style="fill: rgb(217,95,2); stroke: rgb(217,95,2); stroke-width: 1" />
	<path d="M72.8125 265 Q 66.4583333333333 265 , 66.4583333333333 271.354166666667 L  66.4583333333333 278.645833333333  Q 66.4583333333333 285 , 72.8125 285   L 72.8124999999999 285  Q 79.1666666666666 285 , 79.1666666666666 278.645833333333  L 79.1666666666666 271.354166666667 Q 79.1666666666666 265 ,72.8124999999999 265  Z" style="fill: rgb(217,95,2); stroke: rgb(217,95,2); stroke-width: 1" />
	<path d="M95.5208333333333 265 Q 89.1666666666666 265 , 89.1666666666666 271.354166666667 L  89.1666666666666 278.645833333333  Q 89.1666666666666 285 , 95.5208333333333 285   L 95.5208333333333 285  Q 101.875 285 , 101.875 278.645833333333  L 101.875 271.354166666667 Q 101.875 265 ,95.5208333333333 265  Z" style="fill: rgb(217,95,2); stroke: rgb(217,95,2); stroke-width: 1" />
	<path d="M118.229166666667 265 Q 111.875 265 , 111.875 271.354166666667 L  111.875 278.645833333333  Q 111.875 285 , 118.229166666667 285   L 118.229166666667 285  Q 124.583333333333 285 , 124.583333333333 278.645833333333  L 124.583333333333 271.354166666667 Q 124.583333333333 265 ,118.229166666667 265  Z" style="fill: rgb(217,95,2); stroke: rgb(217,95,2); stroke-width: 1" />
	<path d="M140.9375 265 Q 134.583333333333 265 , 134.583333333333 271.354166666667 L  134.583333333333 278.645833333333  Q 134.583333333333 285 , 140.9375 285   L 140.9375 285  Q 147.291666666667 285 , 147.291666666667 278.645833333333  L 147.291666666667 271.354166666667 Q 147.291666666667 265 ,140.9375 265  Z" style="fill: rgb(217,95,2); stroke: rgb(217,95,2); stroke-width: 1" />
	<path d="M163.645833333333 265 Q 157.291666666667 265 , 157.291666666667 271.354166666667 L  157.291666666667 278.645833333333  Q 157.291666666667 285 , 163.645833333333 285   L 163.645833333333 285  Q 170 285 , 170 278.645833333333  L 170 271.354166666667 Q 170 265 ,163.645833333333 265  Z" style="fill: rgb(217,95,2); stroke: rgb(217,95,2); stroke-width: 1" />
	<path d="M186.354166666667 265 Q 180 265 , 180 271.354166666667 L  180 278.645833333333  Q 180 285 , 186.354166666667 285   L 186.354166666667 285  Q 192.708333333333 285 , 192.708333333333 278.645833333333  L 192.708333333333 271.354166666667 Q 192.708333333333 265 ,186.354166666667 265  Z" style="fill: rgb(217,95,2); stroke: rgb(217,95,2); stroke-width: 1" />
	<path d="M209.0625 265 Q 202.708333333333 265 , 202.708333333333 271.354166666667 L  202.708333333333 278.645833333333  Q 202.708333333333 285 , 209.0625 285   L 209.0625 285  Q 215.416666666667 285 , 215.416666666667 278.645833333333  L 215.416666666667 271.354166666667 Q 215.416666666667 265 ,209.0625 265  Z" style="fill: rgb(217,95,2); stroke: rgb(217,95,2); stroke-width: 1" />
	<path d="M231.770833333333 265 Q 225.416666666667 265 , 225.416666666667 271.354166666667 L  225.416666666667 278.645833333333  Q 225.416666666667 285 , 231.770833333333 285   L 231.770833333333 285  Q 238.125 285 , 238.125 278.645833333333  L 238.125 271.354166666667 Q 238.125 265 ,231.770833333333 265  Z" style="fill: rgb(217,95,2); stroke: rgb(217,95,2); stroke-width: 1" />
	<path d="M254.479166666667 265 Q 248.125 265 , 248.125 271.354166666667 L  248.125 278.645833333333  Q 248.125 285 , 254.479166666667 285   L 254.479166666667 285  Q 260.833333333333 285 , 260.833333333333 278.645833333333  L 260.833333333333 271.354166666667 Q 260.833333333333 265 ,254.479166666667 265  Z" style="fill: rgb(217,95,2); stroke: rgb(217,95,2); stroke-width: 1" />
	<path d="M277.1875 265 Q 270.833333333333 265 , 270.833333333333 271.354166666667 L  270.833333333333 278.645833333333  Q 270.833333333333 285 , 277.1875 285   L 277.1875 285  Q 283.541666666667 285 , 283.541666666667 278.645833333333  L 283.541666666667 271.354166666667 Q 283.541666666667 265 ,277.1875 265  Z" style="fill: rgb(217,95,2); stroke: rgb(217,95,2); stroke-width: 1" />
	<path d="M299.895833333333 265 Q 293.541666666667 265 , 293.541666666667 271.354166666667 L  293.541666666667 278.645833333333  Q 293.541666666667 285 , 299.895833333333 285   L 299.895833333333 285  Q 306.25 285 , 306.25 278.645833333333  L 306.25 271.354166666667 Q 306.25 265 ,299.895833333333 265  Z" style="fill: rgb(217,95,2); stroke: rgb(217,95,2); stroke-width: 1" />
	<path d="M322.604166666667 265 Q 316.25 265 , 316.25 271.354166666667 L  316.25 278.645833333333  Q 316.25 285 , 322.604166666667 285   L 322.604166666667 285  Q 328.958333333333 285 , 328.958333333333 278.645833333333  L 328.958333333333 271.354166666667 Q 328.958333333333 265 ,322.604166666667 265  Z" style="fill: rgb(217,95,2); stroke: rgb(217,95,2); stroke-width: 1" />
	<path d="M345.3125 265 Q 338.958333333333 265 , 338.958333333333 271.354166666667 L  338.958333333333 278.645833333333  Q 338.958333333333 285 , 345.3125 285   L 345.3125 285  Q 351.666666666667 285 , 351.666666666667 278.645833333333  L 351.666666666667 271.354166666667 Q 351.666666666667 265 ,345.3125 265  Z" style="fill: rgb(217,95,2); stroke: rgb(217,95,2); stroke-width: 1" />
	<path d="M368.020833333333 265 Q 361.666666666667 265 , 361.666666666667 271.354166666667 L  361.666666666667 278.645833333333  Q 361.666666666667 285 , 368.020833333333 285   L 368.020833333333 285  Q 374.375 285 , 374.375 278.645833333333  L 374.375 271.354166666667 Q 374.375 265 ,368.020833333333 265  Z" style="fill: rgb(217,95,2); stroke: rgb(217,95,2); stroke-width: 1" />
	<path d="M390.729166666667 265 Q 384.375 265 , 384.375 271.354166666667 L  384.375 278.645833333333  Q 384.375 285 , 390.729166666667 285   L 390.729166666667 285  Q 397.083333333333 285 , 397.083333333333 278.645833333333  L 397.083333333333 271.354166666667 Q 397.083333333333 265 ,390.729166666667 265  Z" style="fill: rgb(217,95,2); stroke: rgb(217,95,2); stroke-width: 1" />
	<path d="M413.4375 265 Q 407.083333333333 265 , 407.083333333333 271.354166666667 L  407.083333333333 278.645833333333  Q 407.083333333333 285 , 413.4375 285   L 413.4375 285  Q 419.791666666667 285 , 419.791666666667 278.645833333333  L 419.791666666667 271.354166666667 Q 419.791666666667 265 ,413.4375 265  Z" style="fill: rgb(217,95,2); stroke: rgb(217,95,2); stroke-width: 1" />
	<path d="M436.145833333333 265 Q 429.791666666667 265 , 429.791666666667 271.354166666667 L  429.791666666667 278.645833333333  Q 429.791666666667 285 , 436.145833333333 285   L 436.145833333333 285  Q 442.5 285 , 442.5 278.645833333333  L 442.5 271.354166666667 Q 442.5 265 ,436.145833333333 265  Z" style="fill: rgb(217,95,2); stroke: rgb(217,95,2); stroke-width: 1" />
	<path d="M458.854166666667 265 Q 452.5 265 , 452.5 271.354166666667 L  452.5 278.645833333333  Q 452.5 285 , 458.854166666667 285   L 458.854166666666 285  Q 465.208333333333 285 , 465.208333333333 278.645833333333  L 465.208333333333 271.354166666667 Q 465.208333333333 265 ,458.854166666666 265  Z" style="fill: rgb(217,95,2); stroke: rgb(217,95,2); stroke-width: 1" />
	<path d="M481.5625 265 Q 475.208333333333 265 , 475.208333333333 271.354166666667 L  475.208333333333 278.645833333333  Q 475.208333333333 285 , 481.5625 285   L 481.5625 285  Q 487.916666666666 285 , 487.916666666666 278.645833333333  L 487.916666666666 271.354166666667 Q 487.916666666666 265 ,481.5625 265  Z" style="fill: rgb(217,95,2); stroke: rgb(217,95,2); stroke-width: 1" />
	<path d="M504.270833333333 265 Q 497.916666666666 265 , 497.916666666666 271.354166666667 L  497.916666666666 278.645833333333  Q 497.916666666666 285 , 504.270833333333 285   L 504.270833333333 285  Q 510.625 285 , 510.625 278.645833333333  L 510.625 271.354166666667 Q 510.625 265 ,504.270833333333 265  Z" style="fill: rgb(217,95,2); stroke: rgb(217,95,2); stroke-width: 1" />
	<path d="M526.979166666666 265 Q 520.625 265 , 520.625 271.354166666667 L  520.625 278.645833333333  Q 520.625 285 , 526.979166666666 285   L 526.979166666667 285  Q 533.333333333333 285 , 533.333333333333 278.645833333333  L 533.333333333333 271.354166666667 Q 533.333333333333 265 ,526.979166666667 265  Z" style="fill: rgb(217,95,2); stroke: rgb(217,95,2); stroke-width: 1" />
	<path d="M549.6875 265 Q 543.333333333333 265 , 543.333333333333 271.354166666667 L  543.333333333333 278.645833333333  Q 543.333333333333 285 , 549.6875 285   L 549.6875 285  Q 556.041666666667 285 , 556.041666666667 278.645833333333  L 556.041666666667 271.354166666667 Q 556.041666666667 265 ,549.6875 265  Z" style="fill: rgb(217,95,2); stroke: rgb(217,95,2); stroke-width: 1" />
	<path d="M572.395833333333 265 Q 566.041666666667 265 , 566.041666666667 271.354166666667 L  566.041666666667 278.645833333333  Q 566.041666666667 285 , 572.395833333333 285   L 572.395833333333 285  Q 578.75 285 , 578.75 278.645833333333  L 578.75 271.354166666667 Q 578.75 265 ,572.395833333333 265  Z" style="fill: rgb(217,95,2); stroke: rgb(217,95,2); stroke-width: 1" />
	<path d="M595.104166666667 265 Q 588.75 265 , 588.75 271.354166666667 L  588.75 278.645833333333  Q 588.75 285 , 595.104166666667 285   L 595.104166666667 285  Q 601.458333333333 285 , 601.458333333333 278.645833333333  L 601.458333333333 271.354166666667 Q 601.458333333333 265 ,595.104166666667 265  Z" style="fill: rgb(217,95,2); stroke: rgb(217,95,2); stroke-width: 1" />
	<path d="M617.8125 265 Q 611.458333333333 265 , 611.458333333333 271.354166666667 L  611.458333333333 278.645833333333  Q 611.458333333333 285 , 617.8125 285   L 617.8125 285  Q 624.166666666667 285 , 624.166666666667 278.645833333333  L 624.166666666667 271.354166666667 Q 624.166666666667 265 ,617.8125 265  Z" style="fill: rgb(217,95,2); stroke: rgb(217,95,2); stroke-width: 1" />
	<path d="M640.520833333333 265 Q 634.166666666667 265 , 634.166666666667 271.354166666667 L  634.166666666667 278.645833333333  Q 634.166666666667 285 , 640.520833333333 285   L 640.520833333333 285  Q 646.875 285 , 646.875 278.645833333333  L 646.875 271.354166666667 Q 646.875 265 ,640.520833333333 265  Z" style="fill: rgb(217,95,2); stroke: rgb(217,95,2); stroke-width: 1" />
	<path d="M663.229166666667 265 Q 656.875 265 , 656.875 271.354166666667 L  656.875 278.645833333333  Q 656.875 285 , 663.229166666667 285   L 663.229166666667 285  Q 669.583333333333 285 , 669.583333333333 278.645833333333  L 669.583333333333 271.354166666667 Q 669.583333333333 265 ,663.229166666667 265  Z" style="fill: rgb(217,95,2); stroke: rgb(217,95,2); stroke-width: 1" />
	<path d="M685.9375 265 Q 679.583333333333 265 , 679.583333333333 271.354166666667 L  679.583333333333 278.645833333333  Q 679.583333333333 285 , 685.9375 285   L 685.9375 285  Q 692.291666666667 285 , 692.291666666667 278.645833333333  L 692.291666666667 271.354166666667 Q 692.291666666667 265 ,685.9375 265  Z" style="fill: rgb(217,95,2); stroke: rgb(217,95,2); stroke-width: 1" />
	<path d="M708.645833333333 265 Q 702.291666666667 265 , 702.291666666667 271.354166666667 L  702.291666666667 278.645833333333  Q 702.291666666667 285 , 708.645833333333 285   L 708.645833333333 285  Q 715 285 , 715 278.645833333333  L 715 271.354166666667 Q 715 265 ,708.645833333333 265  Z" style="fill: rgb(217,95,2); stroke: rgb(217,95,2); stroke-width: 1" />
	<path d="M731.354166666667 265 Q 725 265 , 725 271.354166666667 L  725 278.645833333333  Q 725 285 , 731.354166666667 285   L 731.354166666667 285  Q 737.708333333333 285 , 737.708333333333 278.645833333333  L 737.708333333333 271.354166666667 Q 737.708333333333 265 ,731.354166666667 265  Z" style="fill: rgb(217,95,2); stroke: rgb(217,95,2); stroke-width: 1" />
	<path d="M754.0625 265 Q 747.708333333333 265 , 747.708333333333 271.354166666667 L  747.708333333333 278.645833333333  Q 747.708333333333 285 , 754.0625 285   L 754.0625 285  Q 760.416666666667 285 , 760.416666666667 278.645833333333  L 760.416666666667 271.354166666667 Q 760.416666666667 265 ,754.0625 265  Z" style="fill: rgb(217,95,2); stroke: rgb(217,95,2); stroke-width: 1" />
	<path d="M776.770833333333 265 Q 770.416666666667 265 , 770.416666666667 271.354166666667 L  770.416666666667 278.645833333333  Q 770.416666666667 285 , 776.770833333333 285   L 776.770833333334 285  Q 783.125 285 , 783.125 278.645833333333  L 783.125 271.354166666667 Q 783.125 265 ,776.770833333334 265  Z" style="fill: rgb(217,95,2); stroke: rgb(217,95,2); stroke-width: 1" />
	<path d="M799.479166666667 265 Q 793.125 265 , 793.125 271.354166666667 L  793.125 278.645833333333  Q 793.125 285 , 799.479166666667 285   L 799.479166666667 285  Q 805.833333333334 285 , 805.833333333334 278.645833333333  L 805.833333333334 271.354166666667 Q 805.833333333334 265 ,799.479166666667 265  Z" style="fill: rgb(217,95,2); stroke: rgb(217,95,2); stroke-width: 1" />
	<path d="M822.1875 265 Q 815.833333333334 265 , 815.833333333334 271.354166666667 L  815.833333333334 278.645833333333  Q 815.833333333334 285 , 822.1875 285   L 822.1875 285  Q 828.541666666667 285 , 828.541666666667 278.645833333333  L 828.541666666667 271.354166666667 Q 828.541666666667 265 ,822.1875 265  Z" style="fill: rgb(217,95,2); stroke: rgb(217,95,2); stroke-width: 1" />
	<path d="M844.895833333334 265 Q 838.541666666667 265 , 838.541666666667 271.354166666667 L  838.541666666667 278.645833333333  Q 838.541666666667 285 , 844.895833333334 285   L 844.895833333334 285  Q 851.25 285 , 851.25 278.645833333333  L 851.25 271.354166666667 Q 851.25 265 ,844.895833333334 265  Z" style="fill: rgb(217,95,2); stroke: rgb(217,95,2); stroke-width: 1" />
	<path d="M867.604166666667 265 Q 861.25 265 , 861.25 271.354166666667 L  861.25 278.645833333333  Q 861.25 285 , 867.604166666667 285   L 867.604166666667 285  Q 873.958333333334 285 , 873.958333333334 278.645833333333  L 873.958333333334 271.354166666667 Q 873.958333333334 265 ,867.604166666667 265  Z" style="fill: rgb(217,95,2); stroke: rgb(217,95,2); stroke-width: 1" />
	<path d="M890.3125 265 Q 883.958333333334 265 , 883.958333333334 271.354166666667 L  883.958333333334 278.645833333333  Q 883.958333333334 285 , 890.3125 285   L 890.3125 285  Q 896.666666666667 285 , 896.666666666667 278.645833333333  L 896.666666666667 271.354166666667 Q 896.666666666667 265 ,890.3125 265  Z" style="fill: rgb(217,95,2); stroke: rgb(217,95,2); stroke-width: 1" />
	<path d="M913.020833333334 265 Q 906.666666666667 265 , 906.666666666667 271.354166666667 L  906.666666666667 278.645833333333  Q 906.666666666667 285 , 913.020833333334 285   L 913.020833333334 285  Q 919.375 285 , 919.375 278.645833333333  L 919.375 271.354166666667 Q 919.375 265 ,913.020833333334 265  Z" style="fill: rgb(217,95,2); stroke: rgb(217,95,2); stroke-width: 1" />
	<path d="M935.729166666667 265 Q 929.375 265 , 929.375 271.354166666667 L  929.375 278.645833333333  Q 929.375 285 , 935.729166666667 285   L 935.729166666667 285  Q 942.083333333334 285 , 942.083333333334 278.645833333333  L 942.083333333334 271.354166666667 Q 942.083333333334 265 ,935.729166666667 265  Z" style="fill: rgb(217,95,2); stroke: rgb(217,95,2); stroke-width: 1" />
	<path d="M958.4375 265 Q 952.083333333334 265 , 952.083333333334 271.354166666667 L  952.083333333334 278.645833333333  Q 952.083333333334 285 , 958.4375 285   L 958.437500000001 285  Q 964.791666666667 285 , 964.791666666667 278.645833333333  L 964.791666666667 271.354166666667 Q 964.791666666667 265 ,958.437500000001 265  Z" style="fill: rgb(217,95,2); stroke: rgb(217,95,2); stroke-width: 1" />
	<path d="M981.145833333334 265 Q 974.791666666667 265 , 974.791666666667 271.354166666667 L  974.791666666667 278.645833333333  Q 974.791666666667 285 , 981.145833333334 285   L 981.145833333334 285  Q 987.500000000001 285 , 987.500000000001 278.645833333333  L 987.500000000001 271.354166666667 Q 987.500000000001 265 ,981.145833333334 265  Z" style="fill: rgb(217,95,2); stroke: rgb(217,95,2); stroke-width: 1" />
	<path d="M1003.85416666667 265 Q 997.500000000001 265 , 997.500000000001 271.354166666667 L  997.500000000001 278.645833333333  Q 997.500000000001 285 , 1003.85416666667 285   L 1003.85416666667 285  Q 1010.20833333333 285 , 1010.20833333333 278.645833333333  L 1010.20833333333 271.354166666667 Q 1010.20833333333 265 ,1003.85416666667 265  Z" style="fill: rgb(217,95,2); stroke: rgb(217,95,2); stroke-width: 1" />
	<path d="M1026.5625 265 Q 1020.20833333333 265 , 1020.20833333333 271.354166666667 L  1020.20833333333 278.645833333333  Q 1020.20833333333 285 , 1026.5625 285   L 1026.5625 285  Q 1032.91666666667 285 , 1032.91666666667 278.645833333333  L 1032.91666666667 271.354166666667 Q 1032.91666666667 265 ,1026.5625 265  Z" style="fill: rgb(217,95,2); stroke: rgb(217,95,2); stroke-width: 1" />
	<path d="M1049.27083333333 265 Q 1042.91666666667 265 , 1042.91666666667 271.354166666667 L  1042.91666666667 278.645833333333  Q 1042.91666666667 285 , 1049.27083333333 285   L 1049.27083333333 285  Q 1055.625 285 , 1055.625 278.645833333333  L 1055.625 271.354166666667 Q 1055.625 265 ,1049.27083333333 265  Z" style="fill: rgb(217,95,2); stroke: rgb(217,95,2); stroke-width: 1" />
	<path d="M1071.97916666667 265 Q 1065.625 265 , 1065.625 271.354166666667 L  1065.625 278.645833333333  Q 1065.625 285 , 1071.97916666667 285   L 1071.97916666667 285  Q 1078.33333333333 285 , 1078.33333333333 278.645833333333  L 1078.33333333333 271.354166666667 Q 1078.33333333333 265 ,1071.97916666667 265  Z" style="fill: rgb(217,95,2); stroke: rgb(217,95,2); stroke-width: 1" />
	<path d="M1094.6875 265 Q 1088.33333333333 265 , 1088.33333333333 271.354166666667 L  1088.33333333333 278.645833333333  Q 1088.33333333333 285 , 1094.6875 285   L 1094.6875 285  Q 1101.04166666667 285 , 1101.04166666667 278.645833333333  L 1101.04166666667 271.354166666667 Q 1101.04166666667 265 ,1094.6875 265  Z" style="fill: rgb(217,95,2); stroke: rgb(217,95,2); stroke-width: 1" />
	<path d="M1117.39583333333 265 Q 1111.04166666667 265 , 1111.04166666667 271.354166666667 L  1111.04166666667 278.645833333333  Q 1111.04166666667 285 , 1117.39583333333 285   L 1117.39583333333 285  Q 1123.75 285 , 1123.75 278.645833333333  L 1123.75 271.354166666667 Q 1123.75 265 ,1117.39583333333 265  Z" style="fill: rgb(217,95,2); stroke: rgb(217,95,2); stroke-width: 1" />
	<path d="M1140.10416666667 265 Q 1133.75 265 , 1133.75 271.354166666667 L  1133.75 278.645833333333  Q 1133.75 285 , 1140.10416666667 285   L 1140.10416666667 285  Q 1146.45833333333 285 , 1146.45833333333 278.645833333333  L 1146.45833333333 271.354166666667 Q 1146.45833333333 265 ,1140.10416666667 265  Z" style="fill: rgb(217,95,2); stroke: rgb(217,95,2); stroke-width: 1" />
	<path d="M1162.8125 265 Q 1156.45833333333 265 , 1156.45833333333 271.354166666667 L  1156.45833333333 278.645833333333  Q 1156.45833333333 285 , 1162.8125 285   L 1162.8125 285  Q 1169.16666666667 285 , 1169.16666666667 278.645833333333  L 1169.16666666667 271.354166666667 Q 1169.16666666667 265 ,1162.8125 265  Z" style="fill: rgb(217,95,2); stroke: rgb(217,95,2); stroke-width: 1" />
	<path d="M1185.52083333333 265 Q 1179.16666666667 265 , 1179.16666666667 271.354166666667 L  1179.16666666667 278.645833333333  Q 1179.16666666667 285 , 1185.52083333333 285   L 1185.52083333333 285  Q 1191.875 285 , 1191.875 278.645833333333  L 1191.875 271.354166666667 Q 1191.875 265 ,1185.52083333333 265  Z" style="fill: rgb(217,95,2); stroke: rgb(217,95,2); stroke-width: 1" />
	<path d="M1208.22916666667 265 Q 1201.875 265 , 1201.875 271.354166666667 L  1201.875 278.645833333333  Q 1201.875 285 , 1208.22916666667 285   L 1208.22916666667 285  Q 1214.58333333333 285 , 1214.58333333333 278.645833333333  L 1214.58333333333 271.354166666667 Q 1214.58333333333 265 ,1208.22916666667 265  Z" style="fill: rgb(217,95,2); stroke: rgb(217,95,2); stroke-width: 1" />
	<path d="M1230.9375 265 Q 1224.58333333333 265 , 1224.58333333333 271.354166666667 L  1224.58333333333 278.645833333333  Q 1224.58333333333 285 , 1230.9375 285   L 1230.9375 285  Q 1237.29166666667 285 , 1237.29166666667 278.645833333333  L 1237.29166666667 271.354166666667 Q 1237.29166666667 265 ,1230.9375 265  Z" style="fill: rgb(217,95,2); stroke: rgb(217,95,2); stroke-width: 1" />
	<path d="M1253.64583333333 265 Q 1247.29166666667 265 , 1247.29166666667 271.354166666667 L  1247.29166666667 278.645833333333  Q 1247.29166666667 285 , 1253.64583333333 285   L 1253.64583333333 285  Q 1260 285 , 1260 278.645833333333  L 1260 271.354166666667 Q 1260 265 ,1253.64583333333 265  Z" style="fill: rgb(217,95,2); stroke: rgb(217,95,2); stroke-width: 1" />
	<path d="M1276.35416666667 265 Q 1270 265 , 1270 271.354166666667 L  1270 278.645833333333  Q 1270 285 , 1276.35416666667 285   L 1276.35416666667 285  Q 1282.70833333333 285 , 1282.70833333333 278.645833333333  L 1282.70833333333 271.354166666667 Q 1282.70833333333 265 ,1276.35416666667 265  Z" style="fill: rgb(217,95,2); stroke: rgb(217,95,2); stroke-width: 1" />
	<path d="M1299.0625 265 Q 1292.70833333333 265 , 1292.70833333333 271.354166666667 L  1292.70833333333 278.645833333333  Q 1292.70833333333 285 , 1299.0625 285   L 1299.0625 285  Q 1305.41666666667 285 , 1305.41666666667 278.645833333333  L 1305.41666666667 271.354166666667 Q 1305.41666666667 265 ,1299.0625 265  Z" style="fill: rgb(217,95,2); stroke: rgb(217,95,2); stroke-width: 1" />
	<path d="M1321.77083333333 265 Q 1315.41666666667 265 , 1315.41666666667 271.354166666667 L  1315.41666666667 278.645833333333  Q 1315.41666666667 285 , 1321.77083333333 285   L 1321.77083333333 285  Q 1328.125 285 , 1328.125 278.645833333333  L 1328.125 271.354166666667 Q 1328.125 265 ,1321.77083333333 265  Z" style="fill: rgb(217,95,2); stroke: rgb(217,95,2); stroke-width: 1" />
	<path d="M1344.47916666667 265 Q 1338.125 265 , 1338.125 271.354166666667 L  1338.125 278.645833333333  Q 1338.125 285 , 1344.47916666667 285   L 1344.47916666667 285  Q 1350.83333333333 285 , 1350.83333333333 278.645833333333  L 1350.83333333333 271.354166666667 Q 1350.83333333333 265 ,1344.47916666667 265  Z" style="fill: rgb(217,95,2); stroke: rgb(217,95,2); stroke-width: 1" />
	<path d="M1367.1875 265 Q 1360.83333333333 265 , 1360.83333333333 271.354166666667 L  1360.83333333333 278.645833333333  Q 1360.83333333333 285 , 1367.1875 285   L 1367.1875 285  Q 1373.54166666667 285 , 1373.54166666667 278.645833333333  L 1373.54166666667 271.354166666667 Q 1373.54166666667 265 ,1367.1875 265  Z" style="fill: rgb(217,95,2); stroke: rgb(217,95,2); stroke-width: 1" />
	<path d="M1389.89583333333 265 Q 1383.54166666667 265 , 1383.54166666667 271.354166666667 L  1383.54166666667 278.645833333333  Q 1383.54166666667 285 , 1389.89583333333 285   L 1389.89583333333 285  Q 1396.25 285 , 1396.25 278.645833333333  L 1396.25 271.354166666667 Q 1396.25 265 ,1389.89583333333 265  Z" style="fill: rgb(217,95,2); stroke: rgb(217,95,2); stroke-width: 1" />
	<!-- 
	Generated using the Perl SVG Module V2.78
	by Ronan Oger
	Info: http://www.roitsystems.com/
 -->
</svg>